<svg width="48" height="48" viewBox="0 0 48 48" fill="none" xmlns="http://www.w3.org/2000/svg">
<g clip-path="url(#clip0_966_45149)">
<path d="M11.8242 11.2004H35.2001V6.64277C35.2001 5.75912 34.4838 5.04277 33.6001 5.04277C33.4514 5.04277 33.3035 5.06349 33.1605 5.10434L11.8242 11.2004ZM38.4001 11.2004H40.0001C43.5347 11.2004 46.4001 14.0658 46.4001 17.6004V40.0004C46.4001 43.5351 43.5347 46.4004 40.0001 46.4004H8.0001C4.46548 46.4004 1.6001 43.5351 1.6001 40.0004V15.6211C1.6001 12.7636 3.49435 10.2523 6.24188 9.46733L32.2814 2.02746C32.7103 1.90493 33.1541 1.84277 33.6001 1.84277C36.2511 1.84277 38.4001 3.99181 38.4001 6.64277V11.2004ZM4.8001 17.6004V40.0004C4.8001 41.7677 6.23279 43.2004 8.0001 43.2004H40.0001C41.7674 43.2004 43.2001 41.7677 43.2001 40.0004V17.6004C43.2001 15.8331 41.7674 14.4004 40.0001 14.4004H8.0001C6.23279 14.4004 4.8001 15.8331 4.8001 17.6004ZM23.3785 31.5001H26.1066V33.1804H23.3785V35.2004H20.3397V33.1804H19.2001V31.5001H20.3397V30.4807H19.2001V28.5361H20.3397V22.4004H24.0001C25.4735 22.4004 26.6418 22.756 27.5051 23.4671C28.3684 24.1782 28.8001 25.1882 28.8001 26.4972C28.8001 27.8439 28.3742 28.8445 27.5224 29.499C26.6706 30.1534 25.508 30.4807 24.0346 30.4807H23.3785V31.5001ZM23.3785 24.6848V28.5361H24.0346C24.5526 28.5361 24.9584 28.3662 25.2519 28.0264C25.5454 27.6866 25.6922 27.1894 25.6922 26.535C25.6922 25.9308 25.5454 25.4714 25.2519 25.1568C24.9584 24.8421 24.5238 24.6848 23.9483 24.6848H23.3785Z" fill="#00BA36"/>
</g>
<defs>
<clipPath id="clip0_966_45149">
<rect width="48" height="48" fill="white"/>
</clipPath>
</defs>
</svg>
