<svg width="48" height="48" viewBox="0 0 48 48" fill="none" xmlns="http://www.w3.org/2000/svg">
<g clip-path="url(#clip0_966_45146)">
<path d="M33.6001 9.59961H14.4001V12.7996C14.4001 13.6833 13.6838 14.3996 12.8001 14.3996C11.9164 14.3996 11.2001 13.6833 11.2001 12.7996V9.59961H8.0001C6.23279 9.59961 4.8001 11.0323 4.8001 12.7996V17.5996H43.2001V12.7996C43.2001 11.0323 41.7674 9.59961 40.0001 9.59961H36.8001V12.7996C36.8001 13.6833 36.0838 14.3996 35.2001 14.3996C34.3164 14.3996 33.6001 13.6833 33.6001 12.7996V9.59961ZM36.8001 6.39961H40.0001C43.5347 6.39961 46.4001 9.26499 46.4001 12.7996V39.9996C46.4001 43.5342 43.5347 46.3996 40.0001 46.3996H8.0001C4.46548 46.3996 1.6001 43.5342 1.6001 39.9996V12.7996C1.6001 9.26499 4.46548 6.39961 8.0001 6.39961H11.2001V3.19961C11.2001 2.31595 11.9164 1.59961 12.8001 1.59961C13.6838 1.59961 14.4001 2.31595 14.4001 3.19961V6.39961H33.6001V3.19961C33.6001 2.31595 34.3164 1.59961 35.2001 1.59961C36.0838 1.59961 36.8001 2.31595 36.8001 3.19961V6.39961ZM43.2001 20.7996H4.8001V39.9996C4.8001 41.7669 6.23279 43.1996 8.0001 43.1996H40.0001C41.7674 43.1996 43.2001 41.7669 43.2001 39.9996V20.7996ZM12.0001 30.3996C10.6746 30.3996 9.6001 29.3251 9.6001 27.9996C9.6001 26.6741 10.6746 25.5996 12.0001 25.5996C13.3256 25.5996 14.4001 26.6741 14.4001 27.9996C14.4001 29.3251 13.3256 30.3996 12.0001 30.3996ZM20.0001 30.3996C18.6746 30.3996 17.6001 29.3251 17.6001 27.9996C17.6001 26.6741 18.6746 25.5996 20.0001 25.5996C21.3256 25.5996 22.4001 26.6741 22.4001 27.9996C22.4001 29.3251 21.3256 30.3996 20.0001 30.3996ZM28.0001 30.3996C26.6746 30.3996 25.6001 29.3251 25.6001 27.9996C25.6001 26.6741 26.6746 25.5996 28.0001 25.5996C29.3256 25.5996 30.4001 26.6741 30.4001 27.9996C30.4001 29.3251 29.3256 30.3996 28.0001 30.3996ZM36.0001 30.3996C34.6746 30.3996 33.6001 29.3251 33.6001 27.9996C33.6001 26.6741 34.6746 25.5996 36.0001 25.5996C37.3256 25.5996 38.4001 26.6741 38.4001 27.9996C38.4001 29.3251 37.3256 30.3996 36.0001 30.3996ZM12.0001 38.3996C10.6746 38.3996 9.6001 37.3251 9.6001 35.9996C9.6001 34.6741 10.6746 33.5996 12.0001 33.5996C13.3256 33.5996 14.4001 34.6741 14.4001 35.9996C14.4001 37.3251 13.3256 38.3996 12.0001 38.3996ZM20.0001 38.3996C18.6746 38.3996 17.6001 37.3251 17.6001 35.9996C17.6001 34.6741 18.6746 33.5996 20.0001 33.5996C21.3256 33.5996 22.4001 34.6741 22.4001 35.9996C22.4001 37.3251 21.3256 38.3996 20.0001 38.3996ZM28.0001 38.3996C26.6746 38.3996 25.6001 37.3251 25.6001 35.9996C25.6001 34.6741 26.6746 33.5996 28.0001 33.5996C29.3256 33.5996 30.4001 34.6741 30.4001 35.9996C30.4001 37.3251 29.3256 38.3996 28.0001 38.3996ZM36.0001 38.3996C34.6746 38.3996 33.6001 37.3251 33.6001 35.9996C33.6001 34.6741 34.6746 33.5996 36.0001 33.5996C37.3256 33.5996 38.4001 34.6741 38.4001 35.9996C38.4001 37.3251 37.3256 38.3996 36.0001 38.3996Z" fill="#00BA36"/>
</g>
<defs>
<clipPath id="clip0_966_45146">
<rect width="48" height="48" fill="white"/>
</clipPath>
</defs>
</svg>
