<svg width="48" height="48" viewBox="0 0 48 48" fill="none" xmlns="http://www.w3.org/2000/svg">
<g clip-path="url(#clip0_966_45148)">
<path d="M35.2001 33.5996C37.569 33.5996 39.6373 34.8866 40.7439 36.7996H41.6001C42.4838 36.7996 43.2001 36.0833 43.2001 35.1996V24.6159C43.2001 24.4123 43.1613 24.2106 43.0857 24.0216L40.9192 18.6054C40.6762 17.9979 40.0878 17.5996 39.4336 17.5996H35.2001V23.9996C35.2001 27.5342 32.3347 30.3996 28.8001 30.3996H4.8001V35.1996C4.8001 36.0833 5.51644 36.7996 6.4001 36.7996H7.2563C8.36289 34.8866 10.4312 33.5996 12.8001 33.5996C15.169 33.5996 17.2373 34.8866 18.3439 36.7996H29.6563C30.7629 34.8866 32.8312 33.5996 35.2001 33.5996ZM28.8001 39.9996H19.2001C19.2001 43.5342 16.3347 46.3996 12.8001 46.3996C9.26548 46.3996 6.4001 43.5342 6.4001 39.9996C3.74913 39.9996 1.6001 37.8506 1.6001 35.1996V7.99961C1.6001 4.46499 4.46548 1.59961 8.0001 1.59961H28.8001C32.3347 1.59961 35.2001 4.46499 35.2001 7.99961V14.3996H39.4336C41.3963 14.3996 43.1613 15.5946 43.8903 17.4169L46.0568 22.8332C46.2836 23.4002 46.4001 24.0052 46.4001 24.6159V35.1996C46.4001 37.8506 44.2511 39.9996 41.6001 39.9996C41.6001 43.5342 38.7347 46.3996 35.2001 46.3996C31.6655 46.3996 28.8001 43.5342 28.8001 39.9996ZM12.8001 43.1996C14.5674 43.1996 16.0001 41.7669 16.0001 39.9996C16.0001 38.2323 14.5674 36.7996 12.8001 36.7996C11.0328 36.7996 9.6001 38.2323 9.6001 39.9996C9.6001 41.7669 11.0328 43.1996 12.8001 43.1996ZM35.2001 43.1996C36.9674 43.1996 38.4001 41.7669 38.4001 39.9996C38.4001 38.2323 36.9674 36.7996 35.2001 36.7996C33.4328 36.7996 32.0001 38.2323 32.0001 39.9996C32.0001 41.7669 33.4328 43.1996 35.2001 43.1996ZM4.8001 27.1996H28.8001C30.5674 27.1996 32.0001 25.7669 32.0001 23.9996V7.99961C32.0001 6.2323 30.5674 4.79961 28.8001 4.79961H8.0001C6.23279 4.79961 4.8001 6.2323 4.8001 7.99961V27.1996ZM15.5315 15.6682L16.739 16.8758L22.8108 10.1293C23.402 9.47245 24.4136 9.4192 25.0704 10.0103C25.7273 10.6015 25.7805 11.6131 25.1894 12.27L18.1022 20.1446C18.0709 20.1787 18.0709 20.1787 18.0385 20.2117C17.3512 20.8991 16.2368 20.8991 15.5495 20.2117L13.2687 17.931C12.6439 17.3061 12.6439 16.2931 13.2687 15.6682C13.8936 15.0434 14.9066 15.0434 15.5315 15.6682Z" fill="#00BA36"/>
</g>
<defs>
<clipPath id="clip0_966_45148">
<rect width="48" height="48" fill="white"/>
</clipPath>
</defs>
</svg>
