<svg width="48" height="48" viewBox="0 0 48 48" fill="none" xmlns="http://www.w3.org/2000/svg">
<g clip-path="url(#clip0_966_45147)">
<path d="M24.0754 30.0943C27.3858 30.0943 30.0943 27.3858 30.0943 24.0754C30.0943 20.7651 27.3858 18.0566 24.0754 18.0566C20.7651 18.0566 18.0566 20.7651 18.0566 24.0754C18.0566 27.3858 20.7651 30.0943 24.0754 30.0943ZM24.0754 21.066C25.7306 21.066 27.0849 22.4203 27.0849 24.0754C27.0849 25.7306 25.7306 27.0849 24.0754 27.0849C22.4203 27.0849 21.066 25.7306 21.066 24.0754C21.066 22.4203 22.4203 21.066 24.0754 21.066Z" fill="#00BA36"/>
<path d="M6.77116 32.953L4.21317 38.2194L9.78056 43.7868L15.047 41.2288L18.0564 42.4326L20.0125 48H27.9875L29.9436 42.4326L32.953 41.2288L38.2194 43.7868L43.7868 38.2194L41.2288 32.953L42.4326 29.9436L48 27.9875V20.0125L42.4326 18.0564L41.2288 15.047L43.7868 9.78056L38.2194 4.21317L32.953 6.77116L29.9436 5.5674L27.9875 0H20.0125L18.0564 5.5674L15.047 6.77116L9.78056 4.21317L4.21317 9.78056L6.77116 15.047L5.5674 18.0564L0 20.163V28.1379L5.5674 30.094L6.77116 32.953ZM3.0094 22.2696L7.82445 20.6144L10.0815 15.047L7.82445 10.5329L10.5329 7.82445L15.047 10.0815L20.464 7.82445L22.2696 3.0094H25.8809L27.536 7.82445L33.1034 10.0815L37.6176 7.82445L40.326 10.5329L38.069 15.047L40.326 20.464L45.1411 22.1191V25.7304L40.326 27.3856L38.069 33.1034L40.326 37.768L37.6176 40.326L33.1034 38.069L27.6865 40.326L25.8809 45.1411H22.2696L20.6144 40.326L15.047 38.069L10.5329 40.326L7.82445 37.6176L10.0815 33.1034L7.82445 27.6865L3.0094 25.8809V22.2696Z" fill="#00BA36"/>
</g>
<defs>
<clipPath id="clip0_966_45147">
<rect width="48" height="48" fill="white"/>
</clipPath>
</defs>
</svg>
