<svg width="176" height="16" viewBox="0 0 176 16" fill="none" xmlns="http://www.w3.org/2000/svg">
<path d="M7.66666 16C11.9008 16 15.3333 12.4183 15.3333 8C15.3333 3.58172 11.9008 0 7.66666 0C3.43251 0 0 3.58172 0 8C0 12.4183 3.43251 16 7.66666 16Z" fill="#EC0020"/>
<path d="M19.6667 16.0003C23.9008 16.0003 27.3333 12.5678 27.3333 8.33366C27.3333 4.09948 23.9008 0.666992 19.6667 0.666992C15.4325 0.666992 12 4.09948 12 8.33366C12 12.5678 15.4325 16.0003 19.6667 16.0003Z" fill="#FE9A0C"/>
<path fill-rule="evenodd" clip-rule="evenodd" d="M5.32722 9.93113H4.65827L5.26986 6.73049H5.25916L4.00878 9.93113H3.19496L3.17649 6.73049H3.16579L2.66894 9.93113H2L2.73311 6H3.77834L3.82404 9.06425H3.83571L5.02095 6H6.05548L5.32722 9.93113ZM10.3638 7.73674C10.0677 7.68089 9.76617 7.66033 9.46534 7.67545C9.10267 7.71697 9.02392 7.81977 9.00058 7.93838C8.91794 8.37924 10.5679 7.95617 10.3676 8.97627C10.3024 9.27054 10.1362 9.53159 9.89899 9.71268C9.66165 9.89387 9.3687 9.98312 9.07253 9.96474C8.71074 9.99014 8.34759 9.94408 8.003 9.82932L8.10023 9.2906C8.43684 9.35871 8.77997 9.38787 9.12309 9.37759C9.23248 9.38955 9.34293 9.36939 9.44133 9.31947C9.53972 9.26955 9.62198 9.19196 9.67828 9.09588C9.76968 8.63031 8.12259 8.98023 8.32289 7.94332C8.38793 7.67832 8.54778 7.44751 8.77122 7.29598C8.99475 7.14445 9.26583 7.08306 9.53146 7.12389C9.84269 7.12744 10.1522 7.17163 10.4522 7.25535L10.3618 7.74069L10.3638 7.73674ZM10.742 7.60626L10.987 6.56838H11.655L11.512 7.0883H11.9272L11.83 7.60626H11.4148L11.1231 9.10774C11.093 9.27182 11.0852 9.3341 11.3574 9.3341C11.4044 9.3339 11.4513 9.32965 11.4975 9.32125L11.4002 9.88072C11.2952 9.88072 11.1737 9.95485 11.0687 9.95485H10.9851C10.4075 9.95485 10.3511 9.64645 10.4231 9.28467L10.7478 7.60428L10.742 7.60626ZM12.3531 8.80428C12.3274 8.87743 12.3208 8.95621 12.3337 9.03271C12.3468 9.10932 12.3789 9.18118 12.4273 9.24138C12.4755 9.30158 12.5383 9.34813 12.6094 9.3765C12.6806 9.40487 12.7577 9.41406 12.8334 9.40329C13.246 9.43126 13.6561 9.32006 14.0002 9.08698L13.8942 9.60593C13.5446 9.84563 13.1253 9.95713 12.7051 9.92223C11.9914 9.92223 11.512 9.54761 11.7328 8.41285C11.7802 8.03842 11.9555 7.69275 12.2281 7.43634C12.5008 7.17993 12.8533 7.02919 13.2243 7.01021C13.726 7.01021 14.3687 7.4145 14.1188 8.67677L14.0964 8.80428H12.3463H12.3531ZM13.5014 8.26557C13.5245 8.19548 13.5321 8.12115 13.5236 8.04781C13.5151 7.97436 13.4907 7.90388 13.452 7.84122C13.4134 7.77865 13.3617 7.72557 13.3004 7.68573C13.2391 7.64599 13.1699 7.62049 13.0979 7.6112C12.9368 7.63581 12.7879 7.71291 12.6736 7.83094C12.5593 7.94896 12.4857 8.10138 12.4639 8.26557H13.5014ZM14.5398 7.13772H15.1786L15.0814 7.56178H15.0921C15.1674 7.40698 15.2815 7.27492 15.4227 7.17885C15.564 7.08277 15.7276 7.02593 15.8971 7.01417C15.9419 7.01417 16.0401 7.03492 16.0819 7.03987L15.8359 7.75947C15.7886 7.75186 15.7408 7.74889 15.6929 7.75057C15.5086 7.7401 15.3276 7.80296 15.1879 7.92583C15.0484 8.0487 14.9614 8.22197 14.9452 8.40889L14.6652 9.95683H13.9972L14.5369 7.13772H14.5398ZM18.5768 6.84119C18.3252 6.69164 18.0281 6.64166 17.7426 6.70083C17.4385 6.75519 17.1624 6.91465 16.9607 7.15226C16.7591 7.38978 16.6444 7.69097 16.6361 8.00461C16.5842 8.12382 16.556 8.25232 16.5531 8.3827C16.5502 8.51308 16.5728 8.64267 16.6194 8.76415C16.666 8.88563 16.7358 8.99644 16.8248 9.09044C16.9138 9.18434 17.0201 9.25947 17.1378 9.31136C17.327 9.35644 17.5233 9.36207 17.7148 9.32817C17.9062 9.29416 18.089 9.22121 18.2521 9.11367L18.0712 9.79176C17.9291 9.88843 17.7684 9.95347 17.5999 9.98253C17.4313 10.0117 17.2586 10.0043 17.0931 9.96079C16.1791 9.90345 15.6541 9.28665 15.9069 7.99571C15.9437 7.48112 16.1632 6.99766 16.5245 6.63523C16.8858 6.27284 17.3642 6.05621 17.8709 6.0257C18.0247 6.02404 18.1773 6.05411 18.3193 6.11408C18.4614 6.17406 18.5899 6.26268 18.6974 6.37463L18.5768 6.84415V6.84119ZM24.6051 9.9341H23.9517L24.0198 9.50906H24.012C23.9185 9.64032 23.7953 9.74668 23.6528 9.81914C23.5103 9.89159 23.3527 9.92797 23.1933 9.9252C22.4378 9.9252 22.2638 9.20065 22.4155 8.4425C22.4375 8.0827 22.5837 7.74237 22.8282 7.48132C23.0727 7.22016 23.4 7.05519 23.7524 7.01515C23.8924 7.00319 24.0323 7.03917 24.1498 7.11746C24.2674 7.19575 24.3558 7.31179 24.4009 7.44711H24.4126L24.6644 6.0089H25.3333L24.6041 9.93113L24.6051 9.9341ZM23.4723 9.32916C23.6684 9.30741 23.8507 9.21627 23.9874 9.07176C24.1241 8.92715 24.2063 8.73835 24.2201 8.53838C24.3066 8.09456 24.2764 7.64876 23.8195 7.64876C23.6184 7.68039 23.4348 7.783 23.3008 7.93868C23.1669 8.09436 23.0913 8.29304 23.0873 8.49983C23.0231 8.82504 23.0455 9.33509 23.4762 9.33509L23.4723 9.32916ZM20.572 9.26688C20.572 9.26688 20.5078 9.56342 20.4932 9.7107L20.4592 9.9598H19.8661C19.8529 9.81548 19.8529 9.67018 19.8661 9.52586C19.7504 9.65001 19.611 9.74915 19.4566 9.81706C19.3022 9.88497 19.136 9.92046 18.9677 9.92125C18.8681 9.93182 18.7676 9.9164 18.6754 9.87657C18.5833 9.83663 18.5027 9.77367 18.4411 9.69331C18.3795 9.61304 18.3391 9.51825 18.3235 9.41762C18.308 9.3171 18.3179 9.2142 18.3522 9.11861C18.3873 8.88939 18.4959 8.67845 18.6612 8.51861C18.8266 8.35878 19.0392 8.25904 19.2662 8.23492L19.8855 8.13608C19.9944 8.11927 20.1305 8.19736 20.1646 8.03723C20.1737 7.98533 20.1702 7.93206 20.1543 7.88194C20.1383 7.83183 20.1105 7.78646 20.0732 7.74988C20.0358 7.71331 19.9902 7.68662 19.9404 7.67229C19.8906 7.65795 19.838 7.65627 19.7873 7.66754C19.4374 7.65469 19.0886 7.71627 18.7635 7.84843L18.9152 7.30972C19.2505 7.1571 19.6188 7.09473 19.9847 7.12883C20.096 7.10293 20.2118 7.10451 20.3225 7.13357C20.433 7.16263 20.5352 7.21819 20.6203 7.29568C20.7054 7.37308 20.7708 7.47024 20.8113 7.57878C20.8518 7.68741 20.8661 7.80425 20.853 7.9196L20.5768 9.26095L20.572 9.26688ZM20.0479 8.50576C19.8989 8.59186 19.7328 8.64257 19.5617 8.65403C19.4391 8.65067 19.3192 8.69061 19.2221 8.76701C19.1252 8.84342 19.0573 8.95156 19.0299 9.07314C19.0148 9.11189 19.0097 9.154 19.0151 9.19532C19.0205 9.23663 19.0362 9.27588 19.0608 9.30929C19.0854 9.3427 19.118 9.36919 19.1554 9.38619C19.1929 9.40309 19.2341 9.41001 19.2749 9.40626C19.4351 9.40734 19.5911 9.35416 19.7184 9.25522C19.8457 9.15627 19.937 9.0171 19.9779 8.85963L20.0459 8.50576H20.0479ZM21.1913 7.14069H21.8301L21.7329 7.61713H21.7475C21.8224 7.46224 21.9363 7.33018 22.0774 7.2342C22.2186 7.13822 22.3821 7.08178 22.5516 7.07051C22.5973 7.07051 22.6955 7.09127 22.7373 7.09522L22.4913 7.81482C22.444 7.80721 22.3962 7.80425 22.3484 7.80593C22.2601 7.79565 22.1707 7.80316 22.0854 7.82807C21.9999 7.85298 21.9202 7.89469 21.8507 7.95103C21.7812 8.00728 21.7234 8.07697 21.6805 8.15604C21.6376 8.23512 21.6105 8.32211 21.6007 8.41186L21.3206 9.9598H20.6527L21.1923 7.14069H21.1913ZM7.85521 9.26688C7.85521 9.26688 7.79104 9.56342 7.77548 9.7107L7.74145 9.96079H7.14834C7.1357 9.81607 7.1357 9.67057 7.14834 9.52586C7.03546 9.65644 6.89759 9.7623 6.74309 9.83693C6.58869 9.91156 6.42087 9.95337 6.24994 9.9598C6.14823 9.96573 6.04672 9.94596 5.95445 9.90227C5.86208 9.85848 5.78187 9.79225 5.7209 9.70932C5.65994 9.62639 5.62018 9.52942 5.6051 9.42701C5.59003 9.32461 5.60005 9.22003 5.63447 9.12257C5.66967 8.89344 5.77837 8.6826 5.94366 8.52276C6.10895 8.36293 6.32159 8.26309 6.54843 8.23888L7.16779 8.14003C7.23138 8.13954 7.29302 8.11789 7.34339 8.07845C7.39375 8.03901 7.43012 7.98395 7.44684 7.92158C7.50421 7.61417 7.23974 7.66161 7.06959 7.65766C6.72004 7.6454 6.37167 7.70698 6.04673 7.83855L6.19743 7.29983C6.53142 7.1485 6.89788 7.08623 7.2621 7.11894C7.37343 7.09305 7.48924 7.09463 7.59988 7.12369C7.71043 7.15265 7.81262 7.2083 7.8977 7.2858C7.98277 7.36329 8.04821 7.46036 8.08876 7.56889C8.12921 7.67753 8.1435 7.79436 8.13037 7.90972L7.85521 9.26787V9.26688ZM7.33017 8.50576C7.18121 8.59196 7.01504 8.64266 6.84401 8.65403C6.72121 8.65057 6.60113 8.69051 6.504 8.76692C6.40687 8.84323 6.3388 8.95146 6.31119 9.07314C6.29602 9.11199 6.29087 9.1542 6.29641 9.19561C6.30186 9.23703 6.31771 9.27637 6.3424 9.30978C6.367 9.34319 6.39977 9.36968 6.4374 9.38658C6.47502 9.40339 6.51625 9.41021 6.55718 9.40626C6.71722 9.40724 6.87309 9.35406 7.00026 9.25512C7.12734 9.15617 7.21845 9.017 7.25919 8.85963L7.32725 8.50576H7.33017Z" fill="white"/>
<path fill-rule="evenodd" clip-rule="evenodd" d="M5.32722 9.93113H4.65827L5.26986 6.73049H5.25916L4.00878 9.93113H3.19496L3.17649 6.73049H3.16579L2.66894 9.93113H2L2.73311 6H3.77834L3.82404 9.06425H3.83571L5.02095 6H6.05548L5.32722 9.93113ZM10.3638 7.73674C10.0677 7.68089 9.76617 7.66033 9.46534 7.67545C9.10267 7.71697 9.02392 7.81977 9.00058 7.93838C8.91794 8.37924 10.5679 7.95617 10.3676 8.97627C10.3024 9.27054 10.1362 9.53159 9.89899 9.71268C9.66165 9.89387 9.3687 9.98312 9.07253 9.96474C8.71074 9.99014 8.34759 9.94408 8.003 9.82932L8.10023 9.2906C8.43684 9.35871 8.77997 9.38787 9.12309 9.37759C9.23248 9.38955 9.34293 9.36939 9.44133 9.31947C9.53972 9.26955 9.62198 9.19196 9.67828 9.09588C9.76968 8.63031 8.12259 8.98023 8.32289 7.94332C8.38793 7.67832 8.54778 7.44751 8.77122 7.29598C8.99475 7.14445 9.26583 7.08306 9.53146 7.12389C9.84269 7.12744 10.1522 7.17163 10.4522 7.25535L10.3618 7.74069L10.3638 7.73674ZM10.742 7.60626L10.987 6.56838H11.655L11.512 7.0883H11.9272L11.83 7.60626H11.4148L11.1231 9.10774C11.093 9.27182 11.0852 9.3341 11.3574 9.3341C11.4044 9.3339 11.4513 9.32965 11.4975 9.32125L11.4002 9.88072C11.2952 9.88072 11.1737 9.95485 11.0687 9.95485H10.9851C10.4075 9.95485 10.3511 9.64645 10.4231 9.28467L10.7478 7.60428L10.742 7.60626ZM12.3531 8.80428C12.3274 8.87743 12.3208 8.95621 12.3337 9.03271C12.3468 9.10932 12.3789 9.18118 12.4273 9.24138C12.4755 9.30158 12.5383 9.34813 12.6094 9.3765C12.6806 9.40487 12.7577 9.41406 12.8334 9.40329C13.246 9.43126 13.6561 9.32006 14.0002 9.08698L13.8942 9.60593C13.5446 9.84563 13.1253 9.95713 12.7051 9.92223C11.9914 9.92223 11.512 9.54761 11.7328 8.41285C11.7802 8.03842 11.9555 7.69275 12.2281 7.43634C12.5008 7.17993 12.8533 7.02919 13.2243 7.01021C13.726 7.01021 14.3687 7.4145 14.1188 8.67677L14.0964 8.80428H12.3463H12.3531ZM13.5014 8.26557C13.5245 8.19548 13.5321 8.12115 13.5236 8.04781C13.5151 7.97436 13.4907 7.90388 13.452 7.84122C13.4134 7.77865 13.3617 7.72557 13.3004 7.68573C13.2391 7.64599 13.1699 7.62049 13.0979 7.6112C12.9368 7.63581 12.7879 7.71291 12.6736 7.83094C12.5593 7.94896 12.4857 8.10138 12.4639 8.26557H13.5014ZM14.5398 7.13772H15.1786L15.0814 7.56178H15.0921C15.1674 7.40698 15.2815 7.27492 15.4227 7.17885C15.564 7.08277 15.7276 7.02593 15.8971 7.01417C15.9419 7.01417 16.0401 7.03492 16.0819 7.03987L15.8359 7.75947C15.7886 7.75186 15.7408 7.74889 15.6929 7.75057C15.5086 7.7401 15.3276 7.80296 15.1879 7.92583C15.0484 8.0487 14.9614 8.22197 14.9452 8.40889L14.6652 9.95683H13.9972L14.5369 7.13772H14.5398ZM18.5768 6.84119C18.3252 6.69164 18.0281 6.64166 17.7426 6.70083C17.4385 6.75519 17.1624 6.91465 16.9607 7.15226C16.7591 7.38978 16.6444 7.69097 16.6361 8.00461C16.5842 8.12382 16.556 8.25232 16.5531 8.3827C16.5502 8.51308 16.5728 8.64267 16.6194 8.76415C16.666 8.88563 16.7358 8.99644 16.8248 9.09044C16.9138 9.18434 17.0201 9.25947 17.1378 9.31136C17.327 9.35644 17.5233 9.36207 17.7148 9.32817C17.9062 9.29416 18.089 9.22121 18.2521 9.11367L18.0712 9.79176C17.9291 9.88843 17.7684 9.95347 17.5999 9.98253C17.4313 10.0117 17.2586 10.0043 17.0931 9.96079C16.1791 9.90345 15.6541 9.28665 15.9069 7.99571C15.9437 7.48112 16.1632 6.99766 16.5245 6.63523C16.8858 6.27284 17.3642 6.05621 17.8709 6.0257C18.0247 6.02404 18.1773 6.05411 18.3193 6.11408C18.4614 6.17406 18.5899 6.26268 18.6974 6.37463L18.5768 6.84415V6.84119ZM24.6051 9.9341H23.9517L24.0198 9.50906H24.012C23.9185 9.64032 23.7953 9.74668 23.6528 9.81914C23.5103 9.89159 23.3527 9.92797 23.1933 9.9252C22.4378 9.9252 22.2638 9.20065 22.4155 8.4425C22.4375 8.0827 22.5837 7.74237 22.8282 7.48132C23.0727 7.22016 23.4 7.05519 23.7524 7.01515C23.8924 7.00319 24.0323 7.03917 24.1498 7.11746C24.2674 7.19575 24.3558 7.31179 24.4009 7.44711H24.4126L24.6644 6.0089H25.3333L24.6041 9.93113L24.6051 9.9341ZM23.4723 9.32916C23.6684 9.30741 23.8507 9.21627 23.9874 9.07176C24.1241 8.92715 24.2063 8.73835 24.2201 8.53838C24.3066 8.09456 24.2764 7.64876 23.8195 7.64876C23.6184 7.68039 23.4348 7.783 23.3008 7.93868C23.1669 8.09436 23.0913 8.29304 23.0873 8.49983C23.0231 8.82504 23.0455 9.33509 23.4762 9.33509L23.4723 9.32916ZM20.572 9.26688C20.572 9.26688 20.5078 9.56342 20.4932 9.7107L20.4592 9.9598H19.8661C19.8529 9.81548 19.8529 9.67018 19.8661 9.52586C19.7504 9.65001 19.611 9.74915 19.4566 9.81706C19.3022 9.88497 19.136 9.92046 18.9677 9.92125C18.8681 9.93182 18.7676 9.9164 18.6754 9.87657C18.5833 9.83663 18.5027 9.77367 18.4411 9.69331C18.3795 9.61304 18.3391 9.51825 18.3235 9.41762C18.308 9.3171 18.3179 9.2142 18.3522 9.11861C18.3873 8.88939 18.4959 8.67845 18.6612 8.51861C18.8266 8.35878 19.0392 8.25904 19.2662 8.23492L19.8855 8.13608C19.9944 8.11927 20.1305 8.19736 20.1646 8.03723C20.1737 7.98533 20.1702 7.93206 20.1543 7.88194C20.1383 7.83183 20.1105 7.78646 20.0732 7.74988C20.0358 7.71331 19.9902 7.68662 19.9404 7.67229C19.8906 7.65795 19.838 7.65627 19.7873 7.66754C19.4374 7.65469 19.0886 7.71627 18.7635 7.84843L18.9152 7.30972C19.2505 7.1571 19.6188 7.09473 19.9847 7.12883C20.096 7.10293 20.2118 7.10451 20.3225 7.13357C20.433 7.16263 20.5352 7.21819 20.6203 7.29568C20.7054 7.37308 20.7708 7.47024 20.8113 7.57878C20.8518 7.68741 20.8661 7.80425 20.853 7.9196L20.5768 9.26095L20.572 9.26688ZM20.0479 8.50576C19.8989 8.59186 19.7328 8.64257 19.5617 8.65403C19.4391 8.65067 19.3192 8.69061 19.2221 8.76701C19.1252 8.84342 19.0573 8.95156 19.0299 9.07314C19.0148 9.11189 19.0097 9.154 19.0151 9.19532C19.0205 9.23663 19.0362 9.27588 19.0608 9.30929C19.0854 9.3427 19.118 9.36919 19.1554 9.38619C19.1929 9.40309 19.2341 9.41001 19.2749 9.40626C19.4351 9.40734 19.5911 9.35416 19.7184 9.25522C19.8457 9.15627 19.937 9.0171 19.9779 8.85963L20.0459 8.50576H20.0479ZM21.1913 7.14069H21.8301L21.7329 7.61713H21.7475C21.8224 7.46224 21.9363 7.33018 22.0774 7.2342C22.2186 7.13822 22.3821 7.08178 22.5516 7.07051C22.5973 7.07051 22.6955 7.09127 22.7373 7.09522L22.4913 7.81482C22.444 7.80721 22.3962 7.80425 22.3484 7.80593C22.2601 7.79565 22.1707 7.80316 22.0854 7.82807C21.9999 7.85298 21.9202 7.89469 21.8507 7.95103C21.7812 8.00728 21.7234 8.07697 21.6805 8.15604C21.6376 8.23512 21.6105 8.32211 21.6007 8.41186L21.3206 9.9598H20.6527L21.1923 7.14069H21.1913ZM7.85521 9.26688C7.85521 9.26688 7.79104 9.56342 7.77548 9.7107L7.74145 9.96079H7.14834C7.1357 9.81607 7.1357 9.67057 7.14834 9.52586C7.03546 9.65644 6.89759 9.7623 6.74309 9.83693C6.58869 9.91156 6.42087 9.95337 6.24994 9.9598C6.14823 9.96573 6.04672 9.94596 5.95445 9.90227C5.86208 9.85848 5.78187 9.79225 5.7209 9.70932C5.65994 9.62639 5.62018 9.52942 5.6051 9.42701C5.59003 9.32461 5.60005 9.22003 5.63447 9.12257C5.66967 8.89344 5.77837 8.6826 5.94366 8.52276C6.10895 8.36293 6.32159 8.26309 6.54843 8.23888L7.16779 8.14003C7.23138 8.13954 7.29302 8.11789 7.34339 8.07845C7.39375 8.03901 7.43012 7.98395 7.44684 7.92158C7.50421 7.61417 7.23974 7.66161 7.06959 7.65766C6.72004 7.6454 6.37167 7.70698 6.04673 7.83855L6.19743 7.29983C6.53142 7.1485 6.89788 7.08623 7.2621 7.11894C7.37343 7.09305 7.48924 7.09463 7.59988 7.12369C7.71043 7.15265 7.81262 7.2083 7.8977 7.2858C7.98277 7.36329 8.04821 7.46036 8.08876 7.56889C8.12921 7.67753 8.1435 7.79436 8.13037 7.90972L7.85521 9.26787V9.26688ZM7.33017 8.50576C7.18121 8.59196 7.01504 8.64266 6.84401 8.65403C6.72121 8.65057 6.60113 8.69051 6.504 8.76692C6.40687 8.84323 6.3388 8.95146 6.31119 9.07314C6.29602 9.11199 6.29087 9.1542 6.29641 9.19561C6.30186 9.23703 6.31771 9.27637 6.3424 9.30978C6.367 9.34319 6.39977 9.36968 6.4374 9.38658C6.47502 9.40339 6.51625 9.41021 6.55718 9.40626C6.71722 9.40724 6.87309 9.35406 7.00026 9.25512C7.12734 9.15617 7.21845 9.017 7.25919 8.85963L7.32725 8.50576H7.33017Z" fill="white"/>
<path fill-rule="evenodd" clip-rule="evenodd" d="M80.3027 15.7934C80.3027 15.7934 79.9487 13.6191 79.8302 13.0724H74.7232C74.5816 13.4995 73.8751 15.7934 73.8751 15.7934H69.7086L75.6175 1.57341C75.7637 1.15062 76.05 0.790959 76.4256 0.553773C76.8027 0.316603 77.249 0.216088 77.6892 0.26883H80.7676L83.9998 15.7996H80.3058L80.3027 15.7934ZM78.2541 5.79L77.9709 4.46368C77.7831 5.0554 77.4291 5.98103 77.4537 5.95618C77.4537 5.95618 76.1824 9.39161 75.8761 10.2924H79.1714C79.0068 9.51119 78.2541 5.79 78.2541 5.79ZM69.684 3.84866C68.7528 3.42459 67.7385 3.22165 66.718 3.25541C65.1403 3.25541 64.4338 3.91858 64.4092 4.58174C64.4092 5.3179 65.2573 5.79002 66.6687 6.50133C68.9529 7.58848 70.0118 8.94277 69.9887 10.7195C69.9656 13.9173 67.2582 15.9999 63.0624 15.9999C61.5494 16.0043 60.0487 15.7235 58.6373 15.1722L59.1776 11.6886L59.7193 11.9495C60.8753 12.5234 62.1512 12.8078 63.4395 12.7789C63.9552 12.8804 64.4908 12.7803 64.9372 12.4985C65.3835 12.2168 65.7052 11.7746 65.8406 11.2615C65.8406 10.5751 65.3235 10.0765 63.7689 9.31861C62.2621 8.58556 60.2611 7.35397 60.2842 5.12533C60.3089 2.11702 63.0624 0.00014733 66.995 0.00014733C68.2156 -0.00646878 69.4285 0.209798 70.5736 0.638478L70.0318 4.00398L69.684 3.84866ZM52.1681 15.7934L54.6647 0.262618H58.6435L56.1485 15.7934H52.1681ZM42.5868 15.7934L39.039 2.32667C38.9189 2.25523 38.7912 2.18997 38.6665 2.12164H41.0415L41.9188 2.74287L43.5288 5.22779L44.2121 7.13188L44.52 8.70515L44.9448 10.8375L48.8497 0.262618H53.0639L46.801 15.7934H42.5806H42.5868Z" fill="#1470B0"/>
<path fill-rule="evenodd" clip-rule="evenodd" d="M40.4775 3.83178C40.016 3.45871 39.5194 3.13446 38.995 2.86389L38.7771 2.01682C37.6944 1.35959 36.5379 0.841454 35.3333 0.473992V0H41.2202C41.5732 0.000886852 41.9151 0.126591 42.1889 0.356178C42.4629 0.585766 42.652 0.905308 42.725 1.26144L43.9999 8C43.0612 6.41636 41.8705 5.00712 40.4775 3.83178Z" fill="#FFB927"/>
<mask id="mask0_1027_47093" style="mask-type:alpha" maskUnits="userSpaceOnUse" x="92" y="0" width="16" height="16">
<path fill-rule="evenodd" clip-rule="evenodd" d="M106.312 7.78105C106.315 7.85432 106.316 7.92674 106.316 8C106.316 11.488 103.488 14.3158 100 14.3158C96.512 14.3158 93.6842 11.488 93.6842 8C93.6842 4.512 96.512 1.68421 100 1.68421C101.283 1.68421 102.477 2.06653 103.473 2.72421L104.848 1.63537C103.503 0.609684 101.822 0 100 0C95.5815 0 92 3.58147 92 8C92 12.4185 95.5815 16 100 16C104.419 16 108 12.4185 108 8C108 7.50568 107.955 7.02147 107.869 6.55158L106.312 7.78105Z" fill="#C4C4C4"/>
</mask>
<g mask="url(#mask0_1027_47093)">
<path d="M106.311 7.74989C106.314 7.83326 106.316 7.91663 106.316 8C106.316 11.488 103.488 14.3158 100 14.3158C96.512 14.3158 93.6842 11.488 93.6842 8C93.6842 4.512 96.512 1.68421 100 1.68421C101.283 1.68421 102.477 2.06653 103.473 2.72421L104.848 1.63537C103.503 0.609684 101.822 0 100 0C95.5815 0 92 3.58147 92 8C92 12.4185 95.5815 16 100 16C104.419 16 108 12.4185 108 8C108 7.49053 107.952 6.992 107.861 6.50863L106.311 7.74989Z" fill="#24A236"/>
<path d="M99.25 7C103.254 7 106.5 3.75406 106.5 -0.250005C106.5 -4.25407 103.254 -7.5 99.25 -7.5C95.2463 -7.5 92 -4.25407 92 -0.250005C92 3.75406 95.2463 7 99.25 7Z" fill="#008ACB"/>
<g filter="url(#filter0_f_1027_47093)">
<path d="M98 22.5C101.314 22.5 104 19.8138 104 16.5C104 13.1863 101.314 10.5 98 10.5C94.6864 10.5 92 13.1863 92 16.5C92 19.8138 94.6864 22.5 98 22.5Z" fill="#77F628"/>
</g>
<g filter="url(#filter1_f_1027_47093)">
<path d="M92.5 10.5C95.8136 10.5 98.5 7.81368 98.5 4.5C98.5 1.18628 95.8136 -1.5 92.5 -1.5C89.1864 -1.5 86.5 1.18628 86.5 4.5C86.5 7.81368 89.1864 10.5 92.5 10.5Z" fill="#19E7E8"/>
</g>
<g filter="url(#filter2_f_1027_47093)">
<path d="M91.75 16C94.3736 16 96.5 13.8734 96.5 11.25C96.5 8.62666 94.3736 6.5 91.75 6.5C89.1264 6.5 87 8.62666 87 11.25C87 13.8734 89.1264 16 91.75 16Z" fill="#DEFA1B"/>
</g>
</g>
<path d="M99.9048 10L107 4.41461C106.758 3.91143 106.466 3.43766 106.129 3L99.9048 7.89992L97 6.06276V8.15613L99.9048 10Z" fill="#47C530"/>
<path fill-rule="evenodd" clip-rule="evenodd" d="M131.535 16V6.49801H131.115L128.114 16H124.552H124.542L121.549 6.49801H121.131V16H116V0.000450402H121.131C121.764 -0.00788709 122.383 0.192107 122.897 0.571294C123.412 0.950481 123.797 1.48911 123.994 2.10884L126.102 9.50422H126.545L128.658 2.10884C128.856 1.48677 129.242 0.946534 129.761 0.567169C130.278 0.187804 130.901 -0.010767 131.535 0.000450402H136.667V16H131.535Z" fill="#52B461"/>
<path fill-rule="evenodd" clip-rule="evenodd" d="M150.61 15.9929V6.49492H150.207L146.861 14.4649C146.654 14.9205 146.322 15.307 145.902 15.5781C145.482 15.8493 144.991 15.9932 144.491 15.9929H140V0H145.336V9.49797H145.76L149.148 1.51937L149.175 1.45895C149.388 1.02303 149.721 0.655837 150.134 0.399185C150.546 0.142534 151.023 0.00669961 151.509 0.00710832H156V16H150.614L150.61 15.9929Z" fill="#52B461"/>
<path fill-rule="evenodd" clip-rule="evenodd" d="M170.035 10.8313H163.891V15.9997H158.667V7.33301H176C175.462 8.43395 174.609 9.3529 173.548 9.975C172.487 10.5971 171.265 10.895 170.035 10.8313Z" fill="#52B461"/>
<path fill-rule="evenodd" clip-rule="evenodd" d="M175.876 5.33333H166.549C162.289 5.33333 158.746 3.02681 158 0H170.103C173.36 0 176 1.98178 176 4.42488C176 4.73214 175.959 5.03789 175.876 5.33333Z" fill="url(#paint0_linear_1027_47093)"/>
<defs>
<filter id="filter0_f_1027_47093" x="84" y="2.5" width="28" height="28" filterUnits="userSpaceOnUse" color-interpolation-filters="sRGB">
<feFlood flood-opacity="0" result="BackgroundImageFix"/>
<feBlend mode="normal" in="SourceGraphic" in2="BackgroundImageFix" result="shape"/>
<feGaussianBlur stdDeviation="4" result="effect1_foregroundBlur_1027_47093"/>
</filter>
<filter id="filter1_f_1027_47093" x="78.5" y="-9.5" width="28" height="28" filterUnits="userSpaceOnUse" color-interpolation-filters="sRGB">
<feFlood flood-opacity="0" result="BackgroundImageFix"/>
<feBlend mode="normal" in="SourceGraphic" in2="BackgroundImageFix" result="shape"/>
<feGaussianBlur stdDeviation="4" result="effect1_foregroundBlur_1027_47093"/>
</filter>
<filter id="filter2_f_1027_47093" x="81" y="0.5" width="21.5" height="21.5" filterUnits="userSpaceOnUse" color-interpolation-filters="sRGB">
<feFlood flood-opacity="0" result="BackgroundImageFix"/>
<feBlend mode="normal" in="SourceGraphic" in2="BackgroundImageFix" result="shape"/>
<feGaussianBlur stdDeviation="3" result="effect1_foregroundBlur_1027_47093"/>
</filter>
<linearGradient id="paint0_linear_1027_47093" x1="176.016" y1="2.66134" x2="157.974" y2="2.66134" gradientUnits="userSpaceOnUse">
<stop stop-color="#198ECA"/>
<stop offset="1" stop-color="#1DB5E4"/>
</linearGradient>
</defs>
</svg>
