<svg width="40" height="40" viewBox="0 0 40 40" fill="none" xmlns="http://www.w3.org/2000/svg">
<g clip-path="url(#clip0_724_38386)">
<path d="M34.8461 32.1893C36.2529 33.102 37.4733 34.6319 38.5259 36.7371C38.8552 37.3957 38.5883 38.1966 37.9296 38.526C37.271 38.8553 36.4701 38.5883 36.1408 37.9297C35.0005 35.6493 33.7589 34.3732 32.4642 33.9931L31.9025 34.3749C30.02 35.6542 27.6148 35.8848 25.5235 34.9863C21.1253 33.0967 16.5636 29.9191 11.8272 25.4616C6.9639 20.8846 3.67171 16.2435 1.97071 11.5279C1.24609 9.51906 1.52767 7.28468 2.72804 5.51845L4.24786 3.28219C4.62752 2.72356 5.12416 2.25421 5.70333 1.9067C7.90851 0.583599 10.7687 1.29866 12.0919 3.50383L12.3394 3.91635C14.3718 7.30381 13.838 11.6398 11.0447 14.4332L8.13278 17.3451C9.62608 19.4012 11.466 21.4598 13.6548 23.5196C15.8633 25.5982 18.021 27.3776 20.1264 28.8589L22.7984 26.1869C25.5917 23.3935 29.9278 22.8597 33.3152 24.8922L33.7277 25.1397C34.3069 25.4872 34.8036 25.9566 35.1832 26.5152C36.3979 28.3025 36.2018 30.6329 34.8461 32.1893ZM24.684 28.0725L22.4009 30.3556C23.8176 31.2223 25.2095 31.949 26.5762 32.5362C27.8309 33.0753 29.274 32.937 30.4035 32.1693L32.4505 30.7782C33.3593 30.1605 33.5954 28.923 32.9777 28.0141C32.8155 27.7754 32.6032 27.5749 32.3557 27.4264L31.9432 27.1789C29.605 25.7759 26.6121 26.1444 24.684 28.0725ZM4.47917 10.623C5.01438 12.1068 5.73004 13.5925 6.62698 15.0797L9.15906 12.5476C11.0872 10.6195 11.4556 7.62653 10.0527 5.28834L9.80521 4.87582C9.23983 3.93353 8.01762 3.62798 7.07532 4.19335C6.82784 4.34185 6.61561 4.5424 6.45338 4.78111L4.93357 7.01737C4.21334 8.07711 4.04439 9.41774 4.47917 10.623ZM37.4056 14.3294C37.6635 15.0192 37.3134 15.7874 36.6237 16.0453C35.9339 16.3032 35.1657 15.9531 34.9078 15.2634C33.1644 10.6009 29.4678 6.88708 24.814 5.12138C24.1256 4.86016 23.7792 4.09027 24.0404 3.40178C24.3016 2.71329 25.0715 2.36692 25.76 2.62814C31.1313 4.66605 35.3934 8.94805 37.4056 14.3294ZM31.7267 16.7014C31.9837 17.3915 31.6325 18.1592 30.9425 18.4162C30.2524 18.6731 29.4846 18.322 29.2277 17.6319C28.0186 14.3848 25.4412 11.8001 22.1977 10.5815C21.5084 10.3226 21.1595 9.55379 21.4185 8.86445C21.6775 8.17512 22.4463 7.82625 23.1356 8.08524C27.1014 9.57522 30.2483 12.731 31.7267 16.7014Z" fill="#2DAE2C"/>
</g>
<defs>
<clipPath id="clip0_724_38386">
<rect width="40" height="40" fill="white"/>
</clipPath>
</defs>
</svg>
