<svg width="80" height="80" viewBox="0 0 80 80" fill="none" xmlns="http://www.w3.org/2000/svg">
<path d="M78.6358 59.6641L47.0813 11.1549C46.3174 9.98179 45.2727 9.0179 44.042 8.35067C42.8113 7.68344 41.4336 7.33398 40.0336 7.33398C38.6337 7.33398 37.2559 7.68344 36.0253 8.35067C34.7946 9.0179 33.7499 9.98179 32.986 11.1549L1.36424 59.6641C0.537868 60.9321 0.0689849 62.3996 0.00704669 63.9118C-0.0548915 65.424 0.29241 66.925 1.01232 68.2563C1.73224 69.5876 2.79808 70.7 4.09745 71.4761C5.39681 72.2522 6.88154 72.6633 8.39505 72.666H71.5882C73.1031 72.6663 74.59 72.2574 75.8917 71.4826C77.1935 70.7077 78.2618 69.5955 78.9837 68.2637C79.7056 66.9318 80.0544 65.4297 79.9931 63.916C79.9319 62.4023 79.4629 60.9333 78.6358 59.6641ZM39.9495 60.8919C39.2842 60.8919 38.6338 60.6946 38.0806 60.325C37.5274 59.9554 37.0962 59.43 36.8416 58.8153C36.587 58.2006 36.5204 57.5242 36.6502 56.8716C36.78 56.2191 37.1004 55.6197 37.5708 55.1492C38.0413 54.6787 38.6407 54.3583 39.2933 54.2285C39.9458 54.0987 40.6222 54.1654 41.2369 54.42C41.8516 54.6746 42.377 55.1058 42.7466 55.659C43.1163 56.2122 43.3136 56.8626 43.3136 57.5279C43.3137 58.4114 42.9662 59.2595 42.3462 59.889C41.7262 60.5184 40.8834 60.8787 40 60.8919H39.9495ZM43.3136 45.7539C43.3136 46.646 42.9591 47.5017 42.3283 48.1326C41.6974 48.7635 40.8417 49.1179 39.9495 49.1179C39.0574 49.1179 38.2017 48.7635 37.5708 48.1326C36.9399 47.5017 36.5855 46.646 36.5855 45.7539V27.2518C36.5855 26.3596 36.9399 25.5039 37.5708 24.873C38.2017 24.2422 39.0574 23.8877 39.9495 23.8877C40.8417 23.8877 41.6974 24.2422 42.3283 24.873C42.9591 25.5039 43.3136 26.3596 43.3136 27.2518V45.7539Z" fill="#DC3545"/>
</svg>
