<svg width="20" height="20" viewBox="0 0 20 20" fill="none" xmlns="http://www.w3.org/2000/svg">
<g clip-path="url(#clip0_1291_56727)">
<path d="M17.3437 1.9475C16.8477 1.49053 14.8402 0.033679 10.3642 0.0141502C10.3642 0.0141502 5.08748 -0.302216 2.51749 2.05686C1.08798 3.48637 0.584137 5.58376 0.529457 8.18109C0.474776 10.7784 0.408378 15.645 5.09919 16.9651H5.1031L5.09919 18.9805C5.09919 18.9805 5.06795 19.7968 5.60694 19.9609C6.2553 20.164 6.63806 19.5429 7.25908 18.8751C7.59888 18.5079 8.06757 17.9689 8.423 17.5588C11.6335 17.8283 14.0981 17.2112 14.3793 17.1214C15.0276 16.9105 18.6951 16.4418 19.2888 11.5752C19.9059 6.55239 18.992 3.38091 17.3437 1.9475V1.9475ZM17.8867 11.2081C17.3828 15.27 14.4105 15.5278 13.8637 15.7036C13.6294 15.7778 11.4617 16.3168 8.73936 16.141C8.73936 16.141 6.70837 18.5899 6.07563 19.2266C5.86863 19.4336 5.6421 19.4141 5.646 19.004C5.646 18.7345 5.66162 15.6567 5.66162 15.6567C5.65772 15.6567 5.65772 15.6567 5.66162 15.6567C1.68556 14.5553 1.91991 10.4113 1.96287 8.24359C2.00583 6.07589 2.41594 4.29877 3.62672 3.10361C5.80223 1.1312 10.2821 1.42413 10.2821 1.42413C14.0668 1.43975 15.8791 2.58023 16.3009 2.963C17.6953 4.15816 18.4061 7.01718 17.8867 11.2081V11.2081ZM12.4576 8.0522C12.4733 8.3881 11.9694 8.41153 11.9538 8.07564C11.9108 7.21637 11.5085 6.79845 10.6805 6.75159C10.3446 6.73206 10.3759 6.22821 10.7079 6.24774C11.7976 6.30633 12.403 6.93125 12.4576 8.0522ZM13.2505 8.49355C13.2896 6.83751 12.2545 5.5408 10.2899 5.39629C9.95796 5.37285 9.99311 4.86901 10.3251 4.89244C12.5904 5.05649 13.7973 6.61488 13.7544 8.50527C13.7505 8.84117 13.2427 8.82554 13.2505 8.49355V8.49355ZM15.0862 9.01693C15.0901 9.35282 14.5824 9.35673 14.5824 9.02083C14.5589 5.83764 12.4381 4.10348 9.86422 4.08395C9.53223 4.08005 9.53223 3.58011 9.86422 3.58011C12.7428 3.59964 15.0589 5.58767 15.0862 9.01693V9.01693ZM14.6449 12.8485V12.8563C14.223 13.5984 13.4341 14.4186 12.6217 14.1569L12.6139 14.1452C11.7898 13.9147 9.8486 12.9149 8.62219 11.9384C7.98946 11.4385 7.4114 10.8487 6.96615 10.2824C6.56385 9.77855 6.15766 9.18097 5.76317 8.46231C4.93125 6.95859 4.74768 6.2868 4.74768 6.2868C4.48599 5.4744 5.30229 4.68544 6.04829 4.26362H6.05611C6.41544 4.07614 6.75914 4.13863 6.98958 4.41594C6.98958 4.41594 7.4739 4.99399 7.6809 5.27911C7.87619 5.54471 8.13788 5.97043 8.27458 6.20868C8.51283 6.63441 8.36441 7.06795 8.13006 7.24762L7.66137 7.62257C7.42312 7.81395 7.45437 8.16938 7.45437 8.16938C7.45437 8.16938 8.14959 10.798 10.7469 11.4619C10.7469 11.4619 11.1023 11.4932 11.2937 11.2549L11.6687 10.7862C11.8483 10.5519 12.2819 10.4035 12.7076 10.6417C13.2818 10.9659 14.0121 11.4697 14.4965 11.9267C14.7699 12.1493 14.8323 12.4891 14.6449 12.8485Z" fill="black"/>
</g>
<defs>
<clipPath id="clip0_1291_56727">
<rect width="20" height="20" fill="white"/>
</clipPath>
</defs>
</svg>
