<svg width="48" height="48" viewBox="0 0 48 48" fill="none" xmlns="http://www.w3.org/2000/svg">
<g clip-path="url(#clip0_1316_46973)">
<path d="M1.6 8.00005C0.716344 8.00005 0 7.2837 0 6.40005C0 5.51639 0.716344 4.80005 1.6 4.80005H4.9196C7.93745 4.80005 10.5452 6.90821 11.1775 9.85906L14.0804 23.4058C14.5547 25.6189 16.5105 27.2 18.7739 27.2H36.058C38.1706 27.2 40.0349 25.8187 40.65 23.7976L44.8693 9.93419C45.1266 9.08882 46.0205 8.61208 46.8659 8.86937C47.7112 9.12666 48.188 10.0205 47.9307 10.8659L43.7114 24.7293C42.6862 28.0979 39.5791 30.4 36.058 30.4H18.7739C15.0016 30.4 11.7418 27.7648 10.9514 24.0763L8.04857 10.5296C7.73241 9.05413 6.42853 8.00005 4.9196 8.00005H1.6ZM19.2 43.2C16.549 43.2 14.4 41.051 14.4 38.4C14.4 35.7491 16.549 33.6 19.2 33.6C21.851 33.6 24 35.7491 24 38.4C24 41.051 21.851 43.2 19.2 43.2ZM19.2 40C20.0837 40 20.8 39.2837 20.8 38.4C20.8 37.5164 20.0837 36.8 19.2 36.8C18.3163 36.8 17.6 37.5164 17.6 38.4C17.6 39.2837 18.3163 40 19.2 40ZM35.2 43.2C32.549 43.2 30.4 41.051 30.4 38.4C30.4 35.7491 32.549 33.6 35.2 33.6C37.851 33.6 40 35.7491 40 38.4C40 41.051 37.851 43.2 35.2 43.2ZM35.2 40C36.0837 40 36.8 39.2837 36.8 38.4C36.8 37.5164 36.0837 36.8 35.2 36.8C34.3163 36.8 33.6 37.5164 33.6 38.4C33.6 39.2837 34.3163 40 35.2 40ZM23.5314 12.4687L26.3389 15.2762L32.4107 8.52971C33.0019 7.87289 34.0135 7.81964 34.6703 8.41078C35.3272 9.00191 35.3804 10.0136 34.7893 10.6704L27.7021 18.545C27.6708 18.5792 27.6708 18.5792 27.6384 18.6122C26.9511 19.2995 25.8367 19.2995 25.1494 18.6122L21.2686 14.7314C20.6438 14.1066 20.6438 13.0935 21.2686 12.4687C21.8935 11.8438 22.9065 11.8438 23.5314 12.4687Z" fill="#2DAE2C"/>
</g>
<defs>
<clipPath id="clip0_1316_46973">
<rect width="48" height="48" fill="white"/>
</clipPath>
</defs>
</svg>
