<svg width="64" height="64" viewBox="0 0 64 64" fill="none" xmlns="http://www.w3.org/2000/svg">
<g clip-path="url(#clip0_1242_56320)">
<path d="M32 64C14.3275 64 0 49.6725 0 32C0 14.3275 14.3275 0 32 0C49.6725 0 64 14.3275 64 32C64 49.6725 49.6725 64 32 64ZM32 59.7333C47.3173 59.7333 59.7333 47.3173 59.7333 32C59.7333 16.6827 47.3173 4.26667 32 4.26667C16.6827 4.26667 4.26667 16.6827 4.26667 32C4.26667 47.3173 16.6827 59.7333 32 59.7333ZM20.7083 30.4917L27.7333 37.5168L43.2917 21.9584C43.6941 21.5698 44.233 21.3548 44.7923 21.3596C45.3517 21.3645 45.8867 21.5889 46.2823 21.9844C46.6778 22.3799 46.9022 22.915 46.907 23.4743C46.9119 24.0337 46.6969 24.5726 46.3083 24.9749L29.3909 41.8923C28.9509 42.3319 28.3543 42.5789 27.7323 42.5789C27.1102 42.5789 26.5136 42.3319 26.0736 41.8923L17.6896 33.5083C17.2896 33.108 17.065 32.5652 17.0652 31.9992C17.0654 31.4333 17.2904 30.8907 17.6907 30.4907C18.091 30.0907 18.6338 29.866 19.1997 29.8662C19.7656 29.8664 20.3083 30.0914 20.7083 30.4917Z" fill="#2DAE2C"/>
</g>
<defs>
<clipPath id="clip0_1242_56320">
<rect width="64" height="64" fill="white"/>
</clipPath>
</defs>
</svg>
