<svg width="64" height="64" viewBox="0 0 64 64" fill="none" xmlns="http://www.w3.org/2000/svg">
<g clip-path="url(#clip0_619_33300)">
<path d="M36.2667 15.1163L40.0915 11.2915C40.9246 10.4584 42.2754 10.4584 43.1085 11.2915C43.9416 12.1246 43.9416 13.4754 43.1085 14.3085L39.2837 18.1333L43.1085 21.9582C43.9416 22.7913 43.9416 24.142 43.1085 24.9752C42.2754 25.8083 40.9246 25.8083 40.0915 24.9752L36.2667 21.1503L32.4418 24.9752C31.6087 25.8083 30.258 25.8083 29.4248 24.9752C28.5917 24.142 28.5917 22.7913 29.4248 21.9582L33.2497 18.1333L29.4248 14.3085C28.5917 13.4754 28.5917 12.1246 29.4248 11.2915C30.258 10.4584 31.6087 10.4584 32.4418 11.2915L36.2667 15.1163ZM2.13333 10.6667C0.955126 10.6667 0 9.71153 0 8.53333C0 7.35512 0.955126 6.39999 2.13333 6.39999H6.55947C10.5833 6.39999 14.0603 9.21088 14.9034 13.1453L18.7739 31.2076C19.4062 34.1585 22.014 36.2667 25.0318 36.2667H48.0773C50.8942 36.2667 53.3799 34.4249 54.2 31.7301L59.8258 13.2455C60.1688 12.1184 61.3606 11.4827 62.4878 11.8258C63.615 12.1688 64.2506 13.3606 63.9076 14.4878L58.2818 32.9724C56.9149 37.4638 52.7721 40.5333 48.0773 40.5333H25.0318C20.0021 40.5333 15.6558 37.0197 14.6019 32.1016L10.7314 14.0393C10.3099 12.0721 8.57137 10.6667 6.55947 10.6667H2.13333ZM25.6 57.6C22.0654 57.6 19.2 54.7346 19.2 51.2C19.2 47.6654 22.0654 44.8 25.6 44.8C29.1346 44.8 32 47.6654 32 51.2C32 54.7346 29.1346 57.6 25.6 57.6ZM25.6 53.3333C26.7782 53.3333 27.7333 52.3782 27.7333 51.2C27.7333 50.0218 26.7782 49.0667 25.6 49.0667C24.4218 49.0667 23.4667 50.0218 23.4667 51.2C23.4667 52.3782 24.4218 53.3333 25.6 53.3333ZM46.9333 57.6C43.3987 57.6 40.5333 54.7346 40.5333 51.2C40.5333 47.6654 43.3987 44.8 46.9333 44.8C50.468 44.8 53.3333 47.6654 53.3333 51.2C53.3333 54.7346 50.468 57.6 46.9333 57.6ZM46.9333 53.3333C48.1115 53.3333 49.0667 52.3782 49.0667 51.2C49.0667 50.0218 48.1115 49.0667 46.9333 49.0667C45.7551 49.0667 44.8 50.0218 44.8 51.2C44.8 52.3782 45.7551 53.3333 46.9333 53.3333Z" fill="#BFBFBF"/>
</g>
<defs>
<clipPath id="clip0_619_33300">
<rect width="64" height="64" fill="white"/>
</clipPath>
</defs>
</svg>
