<svg width="32" height="32" viewBox="0 0 32 32" fill="none" xmlns="http://www.w3.org/2000/svg">
<g clip-path="url(#clip0_1161_21991)">
<path d="M17.0667 15.0863V21.2662L28.8 15.8508V9.93335L17.2887 14.9983C17.2156 15.0305 17.1415 15.0598 17.0667 15.0863ZM14.9333 15.0863C14.8585 15.0598 14.7844 15.0305 14.7112 14.9983L3.19998 9.93335V15.8508L14.9333 21.2662V15.0863ZM4.39776 8.12967L15.5704 13.0456C15.8441 13.1661 16.1558 13.1661 16.4296 13.0456L27.6022 8.12967L16 2.77479L4.39776 8.12967ZM5.33332 19.1851V24.3798L14.9333 28.7435V23.6158L5.33332 19.1851ZM3.19998 18.2004L2.30599 17.7878C1.55047 17.4391 1.06665 16.683 1.06665 15.8508V8.68249C1.06665 7.85038 1.55047 7.09421 2.30599 6.74551L15.106 0.837814C15.6732 0.576009 16.3267 0.576009 16.894 0.837814L29.694 6.74551C30.4495 7.09421 30.9333 7.85038 30.9333 8.68249V15.8508C30.9333 16.683 30.4495 17.4391 29.694 17.7878L28.8 18.2004V24.3798C28.8 25.2164 28.311 25.9758 27.5494 26.3219L16.8828 31.1704C16.3219 31.4254 15.6781 31.4254 15.1172 31.1704L4.45054 26.3219C3.68895 25.9758 3.19998 25.2164 3.19998 24.3798V18.2004ZM26.6667 19.1851L17.0667 23.6158V28.7435L26.6667 24.3798V19.1851Z" fill="#2DAE2C"/>
</g>
<defs>
<clipPath id="clip0_1161_21991">
<rect width="32" height="32" fill="white"/>
</clipPath>
</defs>
</svg>
