<svg width="32" height="32" viewBox="0 0 32 32" fill="none" xmlns="http://www.w3.org/2000/svg">
<g clip-path="url(#clip0_1161_22019)">
<path d="M23.4667 22.4C25.0459 22.4 26.4248 23.258 27.1625 24.5333H27.7333C28.3224 24.5333 28.8 24.0558 28.8 23.4667V16.4108C28.8 16.2751 28.7741 16.1407 28.7237 16.0147L27.2794 12.4038C27.1174 11.9989 26.7252 11.7333 26.289 11.7333H23.4667V16C23.4667 18.3564 21.5564 20.2667 19.2 20.2667H3.2V23.4667C3.2 24.0558 3.67756 24.5333 4.26667 24.5333H4.83747C5.5752 23.258 6.95406 22.4 8.53333 22.4C10.1126 22.4 11.4915 23.258 12.2292 24.5333H19.7708C20.5085 23.258 21.8874 22.4 23.4667 22.4ZM19.2 26.6667H12.8C12.8 29.0231 10.8897 30.9333 8.53333 30.9333C6.17692 30.9333 4.26667 29.0231 4.26667 26.6667C2.49935 26.6667 1.06667 25.234 1.06667 23.4667V5.33333C1.06667 2.97692 2.97692 1.06667 5.33333 1.06667H19.2C21.5564 1.06667 23.4667 2.97692 23.4667 5.33333V9.6H26.289C27.5975 9.6 28.7742 10.3966 29.2601 11.6115L30.7045 15.2224C30.8557 15.6004 30.9333 16.0037 30.9333 16.4108V23.4667C30.9333 25.234 29.5006 26.6667 27.7333 26.6667C27.7333 29.0231 25.8231 30.9333 23.4667 30.9333C21.1102 30.9333 19.2 29.0231 19.2 26.6667ZM8.53333 28.8C9.71154 28.8 10.6667 27.8449 10.6667 26.6667C10.6667 25.4885 9.71154 24.5333 8.53333 24.5333C7.35512 24.5333 6.4 25.4885 6.4 26.6667C6.4 27.8449 7.35512 28.8 8.53333 28.8ZM23.4667 28.8C24.6449 28.8 25.6 27.8449 25.6 26.6667C25.6 25.4885 24.6449 24.5333 23.4667 24.5333C22.2885 24.5333 21.3333 25.4885 21.3333 26.6667C21.3333 27.8449 22.2885 28.8 23.4667 28.8ZM3.2 18.1333H19.2C20.3782 18.1333 21.3333 17.1782 21.3333 16V5.33333C21.3333 4.15512 20.3782 3.2 19.2 3.2H5.33333C4.15512 3.2 3.2 4.15512 3.2 5.33333V18.1333ZM10.3542 10.4458L11.1593 11.2508L15.2072 6.7531C15.6012 6.31523 16.2757 6.27973 16.7136 6.67382C17.1514 7.06791 17.1869 7.74235 16.7928 8.18023L12.0681 13.43C12.0472 13.4527 12.0472 13.4527 12.0256 13.4747C11.5674 13.933 10.8245 13.933 10.3663 13.4747L8.84575 11.9542C8.42919 11.5377 8.42919 10.8623 8.84575 10.4458C9.26231 10.0292 9.93769 10.0292 10.3542 10.4458Z" fill="#2DAE2C"/>
</g>
<defs>
<clipPath id="clip0_1161_22019">
<rect width="32" height="32" fill="white"/>
</clipPath>
</defs>
</svg>
