<svg width="32" height="32" viewBox="0 0 32 32" fill="none" xmlns="http://www.w3.org/2000/svg">
<g clip-path="url(#clip0_1161_21998)">
<path fill-rule="evenodd" clip-rule="evenodd" d="M13.9094 2.77316C14.1071 1.7995 14.968 1.06668 16 1.06668C17.032 1.06668 17.8929 1.7995 18.0906 2.77316C27.1226 3.72801 31.4273 11.0932 30.9397 24.3864C30.9308 24.6314 30.8797 24.873 30.7886 25.1006L29.1444 29.2111C28.7068 30.305 27.4653 30.8371 26.3714 30.3995C26.3242 30.3802 26.3242 30.3802 26.2776 30.3593C22.4324 28.6036 19.0204 27.7333 16.0473 27.7333C13.0687 27.7333 9.62252 28.6068 5.71566 30.3688C4.64161 30.8533 3.37819 30.3752 2.89378 29.3012C2.87515 29.259 2.87515 29.259 2.85773 29.2164L1.21166 25.1012C1.12047 24.8735 1.06928 24.6318 1.06029 24.3867C0.572709 11.0932 4.8774 3.72801 13.9094 2.77316ZM3.49843 25.074L4.83849 28.4241C9.00192 26.5464 12.7359 25.6 16.0473 25.6C19.3557 25.6 23.0592 26.5447 27.1637 28.4187L28.5016 25.074C24.3765 22.5751 20.2142 21.3333 16 21.3333C11.7858 21.3333 7.62348 22.5751 3.49843 25.074ZM3.15714 22.8003C7.36062 20.4044 11.6457 19.2 16 19.2C20.3543 19.2 24.6394 20.4044 28.8429 22.8003C28.9552 10.6232 24.6981 4.80001 16 4.80001C7.30197 4.80001 3.04485 10.6232 3.15714 22.8003Z" fill="#2DAE2C"/>
</g>
<defs>
<clipPath id="clip0_1161_21998">
<rect width="32" height="32" fill="white"/>
</clipPath>
</defs>
</svg>
