<svg width="32" height="32" viewBox="0 0 32 32" fill="none" xmlns="http://www.w3.org/2000/svg">
<g clip-path="url(#clip0_1233_56235)">
<path d="M23.4862 8.53332C23.4738 8.53353 23.4615 8.53353 23.4491 8.53332H10.1556C10.1413 8.5336 10.1271 8.5336 10.1128 8.53332H5.33332C4.15511 8.53332 3.19998 9.48844 3.19998 10.6666V26.6666C3.19998 27.8449 4.15511 28.8 5.33332 28.8H25.6C26.7782 28.8 27.7333 27.8449 27.7333 26.6666V24.5333H21.3333C19.566 24.5333 18.1333 23.1006 18.1333 21.3333V17.0667C18.1333 15.2993 19.566 13.8667 21.3333 13.8667H27.7333V10.6666C27.7333 9.48844 26.7782 8.53332 25.6 8.53332H23.4862ZM9.86975 6.39998L18.8773 1.65916C19.8789 1.13199 21.1179 1.47882 21.7002 2.44939L24.0706 6.39998H25.6C27.9564 6.39998 29.8666 8.31023 29.8666 10.6666V14.6815C30.5213 15.2674 30.9333 16.1189 30.9333 17.0667V21.3333C30.9333 22.281 30.5213 23.1326 29.8666 23.7185V26.6666C29.8666 29.0231 27.9564 30.9333 25.6 30.9333H5.33332C2.9769 30.9333 1.06665 29.0231 1.06665 26.6666V10.6666C1.06665 8.31023 2.9769 6.39998 5.33332 6.39998H9.86975ZM14.4502 6.39998H21.5827L19.8709 3.54698L14.4502 6.39998ZM21.3333 16C20.7442 16 20.2666 16.4775 20.2666 17.0667V21.3333C20.2666 21.9224 20.7442 22.4 21.3333 22.4H27.7333C28.3224 22.4 28.8 21.9224 28.8 21.3333V17.0667C28.8 16.4775 28.3224 16 27.7333 16H21.3333ZM23.4666 20.2666C22.8775 20.2666 22.4 19.7891 22.4 19.2C22.4 18.6109 22.8775 18.1333 23.4666 18.1333C24.0558 18.1333 24.5333 18.6109 24.5333 19.2C24.5333 19.7891 24.0558 20.2666 23.4666 20.2666Z" fill="#2DAE2C"/>
</g>
<defs>
<clipPath id="clip0_1233_56235">
<rect width="32" height="32" fill="white"/>
</clipPath>
</defs>
</svg>
