<svg width="32" height="32" viewBox="0 0 32 32" fill="none" xmlns="http://www.w3.org/2000/svg">
<path d="M16 4C13.6701 4.00443 11.3919 4.68628 9.44267 5.96251C7.49347 7.23875 5.95747 9.05427 5.02176 11.188C4.08605 13.3216 3.79101 15.6814 4.17258 17.9798C4.55416 20.2781 5.59587 22.416 7.17085 24.1328V24.1328C8.29572 25.3521 9.66095 26.3252 11.1805 26.9908C12.7001 27.6564 14.341 28 16 28C17.6589 28 19.2999 27.6564 20.8194 26.9908C22.339 26.3252 23.7042 25.3521 24.8291 24.1328V24.1328C26.4041 22.416 27.4458 20.2781 27.8274 17.9798C28.2089 15.6814 27.9139 13.3216 26.9782 11.188C26.0425 9.05427 24.5065 7.23875 22.5573 5.96251C20.6081 4.68628 18.3298 4.00443 16 4V4ZM16 25.6223C13.5116 25.6186 11.1216 24.6497 9.33308 22.9196C9.8761 21.5976 10.7998 20.467 11.9869 19.6713C13.174 18.8755 14.5709 18.4507 16 18.4507C17.4291 18.4507 18.8259 18.8755 20.013 19.6713C21.2001 20.467 22.1239 21.5976 22.6669 22.9196C20.8783 24.6497 18.4884 25.6186 16 25.6223ZM13.5975 13.6099C13.5975 13.1348 13.7384 12.6703 14.0024 12.2752C14.2664 11.8801 14.6416 11.5722 15.0806 11.3903C15.5196 11.2085 16.0026 11.1609 16.4687 11.2536C16.9347 11.3463 17.3628 11.5751 17.6988 11.9111C18.0348 12.2471 18.2636 12.6752 18.3563 13.1412C18.449 13.6073 18.4014 14.0903 18.2196 14.5293C18.0377 14.9683 17.7298 15.3435 17.3347 15.6075C16.9396 15.8715 16.4751 16.0124 16 16.0124C15.3628 16.0124 14.7517 15.7593 14.3012 15.3087C13.8506 14.8582 13.5975 14.2471 13.5975 13.6099ZM24.3006 20.8174C23.2273 18.9816 21.5754 17.5536 19.6037 16.7572C20.2153 16.0637 20.6139 15.2084 20.7515 14.294C20.889 13.3796 20.7599 12.4449 20.3794 11.6021C19.9989 10.7592 19.3834 10.0441 18.6066 9.54249C17.8297 9.04086 16.9247 8.77403 16 8.77403C15.0753 8.77403 14.1702 9.04086 13.3934 9.54249C12.6166 10.0441 12.001 10.7592 11.6205 11.6021C11.2401 12.4449 11.1109 13.3796 11.2485 14.294C11.3861 15.2084 11.7846 16.0637 12.3963 16.7572C10.4245 17.5536 8.77267 18.9816 7.6994 20.8174C6.84404 19.3604 6.39211 17.7019 6.39004 16.0124C6.39004 13.4637 7.40252 11.0194 9.20473 9.21717C11.0069 7.41496 13.4513 6.40248 16 6.40248C18.5487 6.40248 20.993 7.41496 22.7952 9.21717C24.5974 11.0194 25.6099 13.4637 25.6099 16.0124C25.6078 17.7019 25.1559 19.3604 24.3006 20.8174V20.8174Z" fill="#2DAE2C"/>
</svg>
