<svg width="32" height="32" viewBox="0 0 32 32" fill="none" xmlns="http://www.w3.org/2000/svg">
<path d="M16 18.6667C18.9414 18.6667 21.3334 16.2747 21.3334 13.3333C21.3334 10.392 18.9414 8 16 8C13.0587 8 10.6667 10.392 10.6667 13.3333C10.6667 16.2747 13.0587 18.6667 16 18.6667ZM16 10.6667C17.4707 10.6667 18.6667 11.8627 18.6667 13.3333C18.6667 14.804 17.4707 16 16 16C14.5294 16 13.3334 14.804 13.3334 13.3333C13.3334 11.8627 14.5294 10.6667 16 10.6667Z" fill="#2DAE2C"/>
<path d="M15.2266 29.0854C15.4523 29.2466 15.7227 29.3332 16 29.3332C16.2773 29.3332 16.5476 29.2466 16.7733 29.0854C17.1786 28.7987 26.7053 21.9201 26.6666 13.3334C26.6666 7.45208 21.8813 2.66675 16 2.66675C10.1186 2.66675 5.33331 7.45208 5.33331 13.3267C5.29464 21.9201 14.8213 28.7987 15.2266 29.0854ZM16 5.33341C20.412 5.33341 24 8.92142 24 13.3401C24.028 19.2574 18.1493 24.5707 16 26.3134C13.852 24.5694 7.97197 19.2547 7.99997 13.3334C7.99997 8.92141 11.588 5.33341 16 5.33341Z" fill="#2DAE2C"/>
</svg>
