<svg width="32" height="32" viewBox="0 0 32 32" fill="none" xmlns="http://www.w3.org/2000/svg">
<g clip-path="url(#clip0_1233_56224)">
<path d="M23.4666 22.4C25.0459 22.4 26.4248 23.258 27.1625 24.5333H27.7333C28.3224 24.5333 28.8 24.0558 28.8 23.4666V16.4108C28.8 16.2751 28.7741 16.1407 28.7237 16.0147L27.2794 12.4038C27.1174 11.9989 26.7251 11.7333 26.289 11.7333H23.4666V16C23.4666 18.3564 21.5564 20.2666 19.2 20.2666H3.19998V23.4666C3.19998 24.0558 3.67755 24.5333 4.26665 24.5333H4.83745C5.57518 23.258 6.95405 22.4 8.53332 22.4C10.1126 22.4 11.4915 23.258 12.2292 24.5333H19.7708C20.5085 23.258 21.8874 22.4 23.4666 22.4ZM19.2 26.6666H12.8C12.8 29.0231 10.8897 30.9333 8.53332 30.9333C6.1769 30.9333 4.26665 29.0231 4.26665 26.6666C2.49934 26.6666 1.06665 25.234 1.06665 23.4666V5.33332C1.06665 2.9769 2.9769 1.06665 5.33332 1.06665H19.2C21.5564 1.06665 23.4666 2.9769 23.4666 5.33332V9.59998H26.289C27.5975 9.59998 28.7741 10.3966 29.2601 11.6115L30.7044 15.2224C30.8556 15.6004 30.9333 16.0037 30.9333 16.4108V23.4666C30.9333 25.234 29.5006 26.6666 27.7333 26.6666C27.7333 29.0231 25.8231 30.9333 23.4666 30.9333C21.1102 30.9333 19.2 29.0231 19.2 26.6666ZM8.53332 28.8C9.71152 28.8 10.6666 27.8449 10.6666 26.6666C10.6666 25.4884 9.71152 24.5333 8.53332 24.5333C7.35511 24.5333 6.39998 25.4884 6.39998 26.6666C6.39998 27.8449 7.35511 28.8 8.53332 28.8ZM23.4666 28.8C24.6449 28.8 25.6 27.8449 25.6 26.6666C25.6 25.4884 24.6449 24.5333 23.4666 24.5333C22.2884 24.5333 21.3333 25.4884 21.3333 26.6666C21.3333 27.8449 22.2884 28.8 23.4666 28.8ZM3.19998 18.1333H19.2C20.3782 18.1333 21.3333 17.1782 21.3333 16V5.33332C21.3333 4.15511 20.3782 3.19998 19.2 3.19998H5.33332C4.15511 3.19998 3.19998 4.15511 3.19998 5.33332V18.1333ZM10.3542 10.4457L11.1592 11.2507L15.2071 6.75309C15.6012 6.31521 16.2757 6.27971 16.7135 6.6738C17.1514 7.06789 17.1869 7.74234 16.7928 8.18021L12.068 13.43C12.0472 13.4527 12.0472 13.4527 12.0256 13.4747C11.5674 13.9329 10.8245 13.9329 10.3662 13.4747L8.84574 11.9542C8.42918 11.5377 8.42918 10.8623 8.84574 10.4457C9.2623 10.0292 9.93767 10.0292 10.3542 10.4457Z" fill="#2DAE2C"/>
</g>
<defs>
<clipPath id="clip0_1233_56224">
<rect width="32" height="32" fill="white"/>
</clipPath>
</defs>
</svg>
