<svg width="48" height="48" viewBox="0 0 48 48" fill="none" xmlns="http://www.w3.org/2000/svg">
<g clip-path="url(#clip0_1297_56741)">
<path d="M25.6 22.4H30.4C30.8243 22.4 31.2313 22.5686 31.5314 22.8686C31.8314 23.1687 32 23.5757 32 24C32 24.4243 31.8314 24.8313 31.5314 25.1314C31.2313 25.4314 30.8243 25.6 30.4 25.6H25.6V30.4C25.6 30.8243 25.4314 31.2313 25.1314 31.5314C24.8313 31.8314 24.4243 32 24 32C23.5757 32 23.1687 31.8314 22.8686 31.5314C22.5686 31.2313 22.4 30.8243 22.4 30.4V25.6H17.6C17.1757 25.6 16.7687 25.4314 16.4686 25.1314C16.1686 24.8313 16 24.4243 16 24C16 23.5757 16.1686 23.1687 16.4686 22.8686C16.7687 22.5686 17.1757 22.4 17.6 22.4H22.4V17.6C22.4 17.1757 22.5686 16.7687 22.8686 16.4686C23.1687 16.1686 23.5757 16 24 16C24.4243 16 24.8313 16.1686 25.1314 16.4686C25.4314 16.7687 25.6 17.1757 25.6 17.6V22.4ZM24 48C10.7456 48 0 37.2544 0 24C0 10.7456 10.7456 0 24 0C37.2544 0 48 10.7456 48 24C48 37.2544 37.2544 48 24 48ZM24 44.8C35.488 44.8 44.8 35.488 44.8 24C44.8 12.512 35.488 3.2 24 3.2C12.512 3.2 3.2 12.512 3.2 24C3.2 35.488 12.512 44.8 24 44.8Z" fill="#2DAE2C"/>
</g>
<defs>
<clipPath id="clip0_1297_56741">
<rect width="48" height="48" fill="white"/>
</clipPath>
</defs>
</svg>
