<svg width="64" height="64" viewBox="0 0 64 64" fill="none" xmlns="http://www.w3.org/2000/svg">
<path d="M32 5C46.8276 5 59 17.0094 59 32C59 46.9114 46.9237 59 32 59C17.0945 59 5 46.9298 5 32C5 17.0996 17.0752 5 32 5ZM32 1C14.8804 1 1 14.8854 1 32C1 49.1246 14.8804 63 32 63C49.1196 63 63 49.1246 63 32C63 14.8854 49.1196 1 32 1ZM27.5 44H29V29H27.5C26.6716 29 26 28.3284 26 27.5V26.5C26 25.6716 26.6716 25 27.5 25H33.5C34.3284 25 35 25.6716 35 26.5V44H36.5C37.3284 44 38 44.6716 38 45.5V46.5C38 47.3284 37.3284 48 36.5 48H27.5C26.6716 48 26 47.3284 26 46.5V45.5C26 44.6716 26.6716 44 27.5 44ZM32 14C29.7909 14 28 15.7909 28 18C28 20.2091 29.7909 22 32 22C34.2091 22 36 20.2091 36 18C36 15.7909 34.2091 14 32 14Z" fill="#BFBFBF"/>
</svg>
