<svg width="40" height="40" viewBox="0 0 40 40" fill="none" xmlns="http://www.w3.org/2000/svg">
<g clip-path="url(#clip0_724_38747)">
<path d="M12 13.3333H28V10.6667C28 6.24839 24.4183 2.66667 20 2.66667C15.5817 2.66667 12 6.24839 12 10.6667V13.3333ZM30.6667 13.3333C33.6122 13.3333 36 15.7211 36 18.6667V34.6667C36 37.6122 33.6122 40 30.6667 40H9.33333C6.38781 40 4 37.6122 4 34.6667V18.6667C4 15.7211 6.38781 13.3333 9.33333 13.3333V10.6667C9.33333 4.77563 14.109 0 20 0C25.891 0 30.6667 4.77563 30.6667 10.6667V13.3333ZM9.33333 16C7.86057 16 6.66667 17.1939 6.66667 18.6667V34.6667C6.66667 36.1394 7.86057 37.3333 9.33333 37.3333H30.6667C32.1394 37.3333 33.3333 36.1394 33.3333 34.6667V18.6667C33.3333 17.1939 32.1394 16 30.6667 16H9.33333ZM18.6667 22.6667C18.6667 21.9303 19.2636 21.3333 20 21.3333C20.7364 21.3333 21.3333 21.9303 21.3333 22.6667V30.6667C21.3333 31.403 20.7364 32 20 32C19.2636 32 18.6667 31.403 18.6667 30.6667V22.6667Z" fill="#2DAE2C"/>
</g>
<defs>
<clipPath id="clip0_724_38747">
<rect width="40" height="40" fill="white"/>
</clipPath>
</defs>
</svg>
