<svg width="48" height="48" viewBox="0 0 48 48" fill="none" xmlns="http://www.w3.org/2000/svg">
<g clip-path="url(#clip0_1323_46979)">
<path d="M17.372 47.2232C16.9174 47.981 15.9345 48.2267 15.1768 47.772C14.4191 47.3174 14.1734 46.3346 14.628 45.5769L18.0298 39.9073C19.1864 37.9796 21.2696 36.8 23.5177 36.8H41.6C43.3673 36.8 44.8 35.3674 44.8 33.6V11.2C44.8 9.43274 43.3673 8.00005 41.6 8.00005H6.4C4.63269 8.00005 3.2 9.43274 3.2 11.2V33.6C3.2 35.3674 4.63269 36.8 6.4 36.8H11.2C12.0837 36.8 12.8 37.5164 12.8 38.4C12.8 39.2837 12.0837 40 11.2 40H6.4C2.86538 40 0 37.1347 0 33.6V11.2C0 7.66543 2.86538 4.80005 6.4 4.80005H41.6C45.1346 4.80005 48 7.66543 48 11.2V33.6C48 37.1347 45.1346 40 41.6 40H23.5177C22.3937 40 21.3521 40.5898 20.7737 41.5537L17.372 47.2232ZM24 26.8771L21.2346 28.64C20.7426 28.9537 20.0999 28.7921 19.7991 28.2791C19.655 28.0334 19.6102 27.7382 19.6744 27.4581L20.4278 24.171L17.9653 21.9735C17.5271 21.5825 17.4759 20.8953 17.8509 20.4384C18.0305 20.2196 18.2859 20.0839 18.5612 20.0611L21.7923 19.7925L23.0357 16.6714C23.2569 16.1161 23.868 15.853 24.4005 16.0836C24.6556 16.1941 24.8583 16.4055 24.9643 16.6714L26.2077 19.7925L29.4388 20.0611C30.0136 20.1088 30.4425 20.6335 30.3966 21.2329C30.3747 21.5199 30.2446 21.7863 30.0347 21.9735L27.5721 24.171L28.3256 27.4581C28.4597 28.0429 28.1137 28.6303 27.5528 28.7701C27.2841 28.837 27.001 28.7903 26.7654 28.64L24 26.8771Z" fill="#2DAE2C"/>
</g>
<defs>
<clipPath id="clip0_1323_46979">
<rect width="48" height="48" fill="white"/>
</clipPath>
</defs>
</svg>
