<svg width="40" height="40" viewBox="0 0 40 40" fill="none" xmlns="http://www.w3.org/2000/svg">
<g clip-path="url(#clip0_724_38501)">
<path fill-rule="evenodd" clip-rule="evenodd" d="M25.118 7.22573L24.3387 6.83608C24.1325 6.733 23.8876 6.74376 23.6913 6.86457C22.4608 7.62155 21.2304 8.00004 20 8.00004C18.7695 8.00004 17.5391 7.62155 16.3087 6.86457C16.1123 6.74375 15.8674 6.73298 15.6612 6.83609L14.8829 7.22524C14.4229 8.18552 14.2277 9.28608 14.3789 10.4203L15.2834 17.2039C15.5986 19.5679 17.6151 21.3334 20 21.3334C22.3849 21.3334 24.4014 19.5679 24.7166 17.2039L25.621 10.4203C25.6542 10.1719 25.6708 9.92149 25.6708 9.67084C25.6708 8.79528 25.4724 7.96607 25.118 7.22573ZM20 1.33337C24.6046 1.33337 28.3374 5.06618 28.3374 9.67084C28.3374 10.0394 28.313 10.4075 28.2643 10.7727L27.3598 17.5564C26.868 21.2451 23.7214 24 20 24C16.2786 24 13.132 21.2451 12.6401 17.5564L11.7357 10.7727C11.1271 6.20849 14.3338 2.01508 18.8981 1.40651C19.2634 1.35781 19.6315 1.33337 20 1.33337ZM11.6766 24.0399C12.391 23.8613 13.1149 24.2956 13.2935 25.01C13.4721 25.7244 13.0378 26.4483 12.3234 26.6269L6.0805 28.1876C5.55016 28.3202 5.15449 28.7631 5.08224 29.3049L4.5921 32.9809C4.39746 34.4408 5.4231 35.782 6.88294 35.9766C6.99977 35.9922 7.11751 36 7.23538 36H32.7646C34.2373 36 35.4312 34.8061 35.4312 33.3334C35.4312 33.2155 35.4234 33.0978 35.4079 32.9809L34.9177 29.3049C34.8455 28.7631 34.4498 28.3202 33.9195 28.1876L27.6766 26.6269C26.9622 26.4483 26.5279 25.7244 26.7065 25.01C26.8851 24.2956 27.609 23.8613 28.3234 24.0399L34.5662 25.6006C36.1572 25.9983 37.3443 27.3269 37.561 28.9525L38.0511 32.6285C38.0823 32.8622 38.0979 33.0976 38.0979 33.3334C38.0979 36.2789 35.7101 38.6667 32.7646 38.6667H7.23538C6.99964 38.6667 6.76417 38.6511 6.53051 38.6199C3.61082 38.2306 1.55954 35.5482 1.94883 32.6285L2.43897 28.9525C2.65571 27.3269 3.84274 25.9983 5.43373 25.6006L11.6766 24.0399Z" fill="#2DAE2C"/>
</g>
<defs>
<clipPath id="clip0_724_38501">
<rect width="40" height="40" fill="white"/>
</clipPath>
</defs>
</svg>
