<svg width="32" height="32" viewBox="0 0 32 32" fill="none" xmlns="http://www.w3.org/2000/svg">
<g clip-path="url(#clip0_1245_56411)">
<path d="M27.7333 9.59995C30.0897 9.59995 32 11.5102 32 13.8666V24.5333C32 26.8897 30.0897 28.8 27.7333 28.8H8.53333C6.17692 28.8 4.26667 26.8897 4.26667 24.5333V22.4C1.91025 22.4 0 20.4897 0 18.1333V7.46662C0 5.1102 1.91025 3.19995 4.26667 3.19995H23.4667C25.8231 3.19995 27.7333 5.1102 27.7333 7.46662V9.59995ZM27.7333 11.7333V18.1333C27.7333 20.4897 25.8231 22.4 23.4667 22.4H6.4V24.5333C6.4 25.7115 7.35513 26.6666 8.53333 26.6666H27.7333C28.9115 26.6666 29.8667 25.7115 29.8667 24.5333V13.8666C29.8667 12.6884 28.9115 11.7333 27.7333 11.7333ZM25.6 7.46662C25.6 6.28841 24.6449 5.33328 23.4667 5.33328H4.26667C3.08846 5.33328 2.13333 6.28841 2.13333 7.46662H25.6ZM25.6 13.8666H2.13333V18.1333C2.13333 19.3115 3.08846 20.2666 4.26667 20.2666H23.4667C24.6449 20.2666 25.6 19.3115 25.6 18.1333V13.8666ZM2.13333 9.59995V11.7333H25.6V9.59995H2.13333Z" fill="#2DAE2C"/>
</g>
<defs>
<clipPath id="clip0_1245_56411">
<rect width="32" height="32" fill="white"/>
</clipPath>
</defs>
</svg>
