<svg width="32" height="32" viewBox="0 0 32 32" fill="none" xmlns="http://www.w3.org/2000/svg">
<g clip-path="url(#clip0_1245_56426)">
<path d="M5.33333 12.8H1.83889C0.955236 12.8 0.238892 12.0836 0.238892 11.2C0.238892 10.6517 0.519621 10.1416 0.982808 9.84826L13.7171 1.7832C15.111 0.900392 16.889 0.900392 18.2829 1.7832L31.0172 9.84826C31.7637 10.3211 31.9856 11.3095 31.5128 12.056C31.2195 12.5192 30.7094 12.8 30.1611 12.8H26.6667V25.6H28.2667C29.7394 25.6 30.9333 26.7939 30.9333 28.2666C30.9333 29.7394 29.7394 30.9333 28.2667 30.9333H3.73333C2.26057 30.9333 1.06667 29.7394 1.06667 28.2666C1.06667 26.7939 2.26057 25.6 3.73333 25.6H5.33333V12.8ZM7.46667 12.8V25.6H11.7333V12.8H7.46667ZM24.5333 12.8H20.2667V25.6H24.5333V12.8ZM18.1333 12.8H13.8667V25.6H18.1333V12.8ZM17.1414 3.58548C16.4445 3.14408 15.5555 3.14408 14.8586 3.58548L3.67778 10.6666H28.3222L17.1414 3.58548ZM3.73333 27.7333C3.43878 27.7333 3.2 27.9721 3.2 28.2666C3.2 28.5612 3.43878 28.8 3.73333 28.8H28.2667C28.5612 28.8 28.8 28.5612 28.8 28.2666C28.8 27.9721 28.5612 27.7333 28.2667 27.7333H3.73333Z" fill="#2DAE2C"/>
</g>
<defs>
<clipPath id="clip0_1245_56426">
<rect width="32" height="32" fill="white"/>
</clipPath>
</defs>
</svg>
