<svg width="32" height="32" viewBox="0 0 32 32" fill="none" xmlns="http://www.w3.org/2000/svg">
<g clip-path="url(#clip0_1245_56420)">
<path d="M9.60004 0H22.4C24.7565 0 26.6667 1.91025 26.6667 4.26667V27.7333C26.6667 30.0897 24.7565 32 22.4 32H9.60004C7.24363 32 5.33337 30.0897 5.33337 27.7333V4.26667C5.33337 1.91025 7.24363 0 9.60004 0ZM9.60004 2.13333C8.42183 2.13333 7.46671 3.08846 7.46671 4.26667V27.7333C7.46671 28.9115 8.42183 29.8667 9.60004 29.8667H22.4C23.5782 29.8667 24.5334 28.9115 24.5334 27.7333V4.26667C24.5334 3.08846 23.5782 2.13333 22.4 2.13333H9.60004ZM10.6667 2.13333H21.3334L20.5615 3.67703C20.3808 4.0384 20.0115 4.26667 19.6075 4.26667H12.3926C11.9886 4.26667 11.6192 4.0384 11.4386 3.67703L10.6667 2.13333Z" fill="#2DAE2C"/>
</g>
<defs>
<clipPath id="clip0_1245_56420">
<rect width="32" height="32" fill="white"/>
</clipPath>
</defs>
</svg>
