<svg width="32" height="32" viewBox="0 0 32 32" fill="none" xmlns="http://www.w3.org/2000/svg">
<g clip-path="url(#clip0_1245_56405)">
<path d="M7.88271 7.46671H23.4667V4.42827C23.4667 3.83917 22.9891 3.3616 22.4 3.3616C22.3009 3.3616 22.2022 3.37542 22.1069 3.40265L7.88271 7.46671ZM25.6 7.46671H26.6667C29.0231 7.46671 30.9333 9.37697 30.9333 11.7334V26.6667C30.9333 29.0231 29.0231 30.9334 26.6667 30.9334H5.33332C2.9769 30.9334 1.06665 29.0231 1.06665 26.6667V10.4138C1.06665 8.50883 2.32949 6.83465 4.16117 6.31131L21.5209 1.35139C21.8068 1.26971 22.1027 1.22827 22.4 1.22827C24.1673 1.22827 25.6 2.66096 25.6 4.42827V7.46671ZM3.19998 11.7334V26.6667C3.19998 27.8449 4.15511 28.8 5.33332 28.8H26.6667C27.8449 28.8 28.8 27.8449 28.8 26.6667V11.7334C28.8 10.5552 27.8449 9.60005 26.6667 9.60005H5.33332C4.15511 9.60005 3.19998 10.5552 3.19998 11.7334ZM15.5856 20.9999H17.4043V22.12H15.5856V23.4667H13.5597V22.12H12.8V20.9999H13.5597V20.3202H12.8V19.0238H13.5597V14.9334H16C16.9822 14.9334 17.7611 15.1704 18.3367 15.6445C18.9122 16.1186 19.2 16.7919 19.2 17.6646C19.2 18.5624 18.9161 19.2294 18.3482 19.6657C17.7803 20.102 17.0053 20.3202 16.023 20.3202H15.5856V20.9999ZM15.5856 16.4563V19.0238H16.023C16.3683 19.0238 16.6388 18.9106 16.8345 18.684C17.0302 18.4575 17.128 18.126 17.128 17.6897C17.128 17.287 17.0302 16.9807 16.8345 16.7709C16.6388 16.5612 16.3491 16.4563 15.9655 16.4563H15.5856Z" fill="#2DAE2C"/>
</g>
<defs>
<clipPath id="clip0_1245_56405">
<rect width="32" height="32" fill="white"/>
</clipPath>
</defs>
</svg>
