<svg width="32" height="32" viewBox="0 0 32 32" fill="none" xmlns="http://www.w3.org/2000/svg">
<g clip-path="url(#clip0_1245_56413)">
<path d="M29.8644 16.2649C29.723 24.3901 23.0923 30.9333 14.9333 30.9333C6.68588 30.9333 0 24.2474 0 16C0 7.75253 6.68588 1.06665 14.9333 1.06665C19.056 1.06665 22.9135 2.747 25.7113 5.66362C26.1191 6.08875 26.1051 6.76398 25.6799 7.17179C25.2548 7.57959 24.5796 7.56555 24.1718 7.14042C21.7722 4.639 18.4688 3.19998 14.9333 3.19998C7.86409 3.19998 2.13333 8.93074 2.13333 16C2.13333 23.0692 7.86409 28.8 14.9333 28.8C21.9128 28.8 27.5875 23.2139 27.7306 16.2688L27.3067 16.5867C26.8354 16.9401 26.1669 16.8446 25.8134 16.3733C25.4599 15.902 25.5554 15.2334 26.0267 14.88L28.8001 12.8L31.5734 14.88C32.0447 15.2334 32.1402 15.902 31.7867 16.3733C31.4333 16.8446 30.7647 16.9401 30.2934 16.5867L29.8644 16.2649ZM14.9333 25.6C9.6314 25.6 5.33333 21.3019 5.33333 16C5.33333 10.6981 9.6314 6.39998 14.9333 6.39998C20.2353 6.39998 24.5333 10.6981 24.5333 16C24.5333 21.3019 20.2353 25.6 14.9333 25.6ZM14.9333 23.4667C19.0571 23.4667 22.4 20.1237 22.4 16C22.4 11.8763 19.0571 8.53332 14.9333 8.53332C10.8096 8.53332 7.46667 11.8763 7.46667 16C7.46667 20.1237 10.8096 23.4667 14.9333 23.4667ZM14.5189 17.7998H16.3376V18.9199H14.5189V20.2667H12.493V18.9199H11.7333V17.7998H12.493V17.1201H11.7333V15.8238H12.493V11.7333H14.9333C15.9156 11.7333 16.6945 11.9704 17.27 12.4444C17.8456 12.9185 18.1333 13.5919 18.1333 14.4645C18.1333 15.3623 17.8494 16.0293 17.2815 16.4657C16.7137 16.902 15.9386 17.1201 14.9564 17.1201H14.5189V17.7998ZM14.5189 13.2562V15.8238H14.9564C15.3017 15.8238 15.5722 15.7105 15.7679 15.484C15.9635 15.2574 16.0614 14.926 16.0614 14.4897C16.0614 14.0869 15.9635 13.7806 15.7679 13.5709C15.5722 13.3611 15.2825 13.2562 14.8988 13.2562H14.5189Z" fill="#2DAE2C"/>
</g>
<defs>
<clipPath id="clip0_1245_56413">
<rect width="32" height="32" fill="white"/>
</clipPath>
</defs>
</svg>
