<svg width="40" height="40" viewBox="0 0 40 40" fill="none" xmlns="http://www.w3.org/2000/svg">
<rect width="40" height="40" rx="6" fill="#725FF0"/>
<path d="M26.6096 12.7528C26.1632 12.3415 24.3564 11.0303 20.328 11.0127C20.328 11.0127 15.5789 10.728 13.266 12.8512C11.9794 14.1377 11.5259 16.0254 11.4767 18.363C11.4275 20.7006 11.3678 25.0805 15.5895 26.2686H15.593L15.5895 28.0825C15.5895 28.0825 15.5614 28.8171 16.0465 28.9648C16.63 29.1476 16.9745 28.5887 17.5334 27.9876C17.8392 27.6571 18.261 27.172 18.5809 26.8029C21.4704 27.0455 23.6885 26.4901 23.9416 26.4092C24.5251 26.2194 27.8258 25.7976 28.3602 21.4177C28.9156 16.8972 28.093 14.0428 26.6096 12.7528V12.7528ZM27.0982 21.0872C26.6447 24.743 23.9697 24.975 23.4776 25.1332C23.2667 25.2 21.3157 25.6851 18.8656 25.5269C18.8656 25.5269 17.0378 27.7309 16.4683 28.3039C16.282 28.4902 16.0781 28.4726 16.0816 28.1036C16.0816 27.861 16.0957 25.091 16.0957 25.091C16.0922 25.091 16.0922 25.091 16.0957 25.091C12.5172 24.0998 12.7281 20.3702 12.7668 18.4192C12.8055 16.4683 13.1746 14.8689 14.2643 13.7932C16.2222 12.0181 20.2541 12.2817 20.2541 12.2817C23.6604 12.2958 25.2914 13.3222 25.671 13.6667C26.926 14.7423 27.5657 17.3155 27.0982 21.0872V21.0872ZM22.2121 18.247C22.2262 18.5493 21.7727 18.5704 21.7586 18.2681C21.72 17.4947 21.3579 17.1186 20.6127 17.0764C20.3104 17.0589 20.3385 16.6054 20.6373 16.623C21.618 16.6757 22.1629 17.2381 22.2121 18.247ZM22.9257 18.6442C22.9608 17.1538 22.0293 15.9867 20.2612 15.8567C19.9624 15.8356 19.994 15.3821 20.2928 15.4032C22.3316 15.5508 23.4178 16.9534 23.3791 18.6547C23.3756 18.957 22.9187 18.943 22.9257 18.6442V18.6442ZM24.5778 19.1152C24.5813 19.4175 24.1244 19.4211 24.1244 19.1187C24.1033 16.2539 22.1945 14.6931 19.878 14.6756C19.5792 14.672 19.5792 14.2221 19.878 14.2221C22.4687 14.2397 24.5532 16.0289 24.5778 19.1152V19.1152ZM24.1806 22.5636V22.5707C23.801 23.2385 23.0909 23.9767 22.3597 23.7412L22.3527 23.7307C21.611 23.5233 19.864 22.6234 18.7602 21.7446C18.1907 21.2946 17.6705 20.7639 17.2698 20.2542C16.9077 19.8007 16.5421 19.2629 16.1871 18.6161C15.4383 17.2627 15.2731 16.6581 15.2731 16.6581C15.0376 15.927 15.7723 15.2169 16.4437 14.8373H16.4507C16.7741 14.6685 17.0834 14.7248 17.2908 14.9743C17.2908 14.9743 17.7267 15.4946 17.913 15.7512C18.0888 15.9902 18.3243 16.3734 18.4473 16.5878C18.6618 16.971 18.5282 17.3612 18.3173 17.5229L17.8955 17.8603C17.681 18.0326 17.7092 18.3524 17.7092 18.3524C17.7092 18.3524 18.3349 20.7182 20.6725 21.3157C20.6725 21.3157 20.9923 21.3439 21.1646 21.1294L21.502 20.7076C21.6637 20.4967 22.0539 20.3631 22.4371 20.5775C22.9538 20.8693 23.6111 21.3228 24.047 21.734C24.2931 21.9344 24.3493 22.2402 24.1806 22.5636Z" fill="white"/>
</svg>
