<svg width="40" height="40" viewBox="0 0 40 40" fill="none" xmlns="http://www.w3.org/2000/svg">
<rect width="40" height="40" rx="6" fill="#F7931F"/>
<path d="M24.0435 22.7385C23.0805 23.3501 21.7556 23.5926 20.8804 23.6839L21.615 24.4079L24.2966 27.0895C25.2771 28.0947 23.6815 29.6657 22.6904 28.6957C22.0191 28.0138 21.0351 27.0298 20.0088 26.0035L17.3272 28.6922C16.3361 29.6586 14.7405 28.0736 15.7316 27.086C16.4135 26.4042 17.387 25.4201 18.4132 24.4044L19.1372 23.6804C18.2727 23.5891 16.9266 23.3606 15.9531 22.735C14.8073 21.997 14.3047 21.5647 14.7476 20.6614C15.0077 20.1483 15.7211 19.716 16.6665 20.4611C16.6665 20.4611 17.9423 21.4768 20.0018 21.4768C22.0613 21.4768 23.3371 20.4611 23.3371 20.4611C24.2825 19.7196 24.9924 20.1483 25.256 20.6614C25.6918 21.5647 25.1892 21.997 24.0435 22.7385ZM15.4399 15.5583C15.4399 13.0384 17.4889 11 19.9983 11C22.5077 11 24.5566 13.0384 24.5566 15.5583C24.5566 18.0677 22.5077 20.1062 19.9983 20.1062C17.4889 20.1062 15.4399 18.0677 15.4399 15.5583V15.5583ZM17.7595 15.5583C17.7595 16.7919 18.7647 17.7971 19.9983 17.7971C21.2319 17.7971 22.237 16.7919 22.237 15.5583C22.237 14.3142 21.2319 13.309 19.9983 13.309C18.7647 13.309 17.7595 14.3142 17.7595 15.5583Z" fill="white"/>
</svg>
