<svg width="40" height="40" viewBox="0 0 40 40" fill="none" xmlns="http://www.w3.org/2000/svg">
<rect width="40" height="40" rx="6" fill="#0277FF"/>
<path d="M28.5898 15.2459C28.7134 14.8162 28.5898 14.5 27.995 14.5H26.0268C25.5256 14.5 25.295 14.7716 25.1714 15.0741C25.1714 15.0741 24.1689 17.5869 22.7521 19.2162C22.2943 19.6872 22.0838 19.8384 21.8332 19.8384C21.7096 19.8384 21.5191 19.6872 21.5191 19.2575V15.2459C21.5191 14.7303 21.3788 14.5 20.9644 14.5H17.8702C17.5561 14.5 17.3689 14.7406 17.3689 14.9641C17.3689 15.4522 18.0773 15.5656 18.1509 16.9406V19.9244C18.1509 20.5775 18.0372 20.6978 17.7866 20.6978C17.1183 20.6978 15.4943 18.1747 14.532 15.2872C14.3382 14.7269 14.1477 14.5 13.6431 14.5H11.675C11.1136 14.5 11 14.7716 11 15.0741C11 15.6103 11.6683 18.2744 14.111 21.7944C15.7383 24.1972 18.0306 25.5 20.1157 25.5C21.3687 25.5 21.5225 25.2113 21.5225 24.7128C21.5225 22.4166 21.4088 22.2 22.037 22.2C22.3278 22.2 22.829 22.3513 23.9985 23.5097C25.3351 24.8847 25.5557 25.5 26.3042 25.5H28.2723C28.8337 25.5 29.1177 25.2113 28.954 24.6406C28.5797 23.4409 26.0502 20.9728 25.9366 20.8078C25.6459 20.4228 25.7294 20.2509 25.9366 19.9072C25.9399 19.9038 28.3425 16.425 28.5898 15.2459V15.2459Z" fill="white"/>
</svg>
