<svg width="40" height="40" viewBox="0 0 40 40" fill="none" xmlns="http://www.w3.org/2000/svg">
<rect width="40" height="40" rx="6" fill="#25D366"/>
<path d="M26.304 13.6156C24.6205 11.9281 22.3786 11 19.996 11C15.0781 11 11.0763 15.0018 11.0763 19.9196C11.0763 21.4906 11.4862 23.0254 12.2656 24.3795L11 29L15.729 27.7585C17.0308 28.4696 18.4973 28.8433 19.992 28.8433H19.996C24.9098 28.8433 29 24.8415 29 19.9237C29 17.5411 27.9875 15.3031 26.304 13.6156V13.6156ZM19.996 27.3406C18.6621 27.3406 17.3562 26.983 16.2192 26.308L15.95 26.1473L13.1455 26.8826L13.8929 24.1464L13.7161 23.8652C12.9728 22.6839 12.583 21.3219 12.583 19.9196C12.583 15.8335 15.9098 12.5067 20 12.5067C21.9808 12.5067 23.8411 13.2781 25.2393 14.6804C26.6375 16.0826 27.4973 17.9429 27.4933 19.9237C27.4933 24.0138 24.0821 27.3406 19.996 27.3406V27.3406ZM24.0621 21.7879C23.8411 21.6754 22.7442 21.1371 22.5393 21.0647C22.3344 20.9884 22.1857 20.9522 22.0371 21.1772C21.8884 21.4022 21.4625 21.9004 21.3299 22.0531C21.2013 22.2018 21.0688 22.2219 20.8478 22.1094C19.5379 21.4545 18.6781 20.9402 17.8143 19.4576C17.5853 19.0638 18.0433 19.092 18.4692 18.2402C18.5415 18.0915 18.5054 17.9629 18.4491 17.8504C18.3929 17.7379 17.9469 16.6411 17.7621 16.1951C17.5813 15.7612 17.3964 15.8214 17.2598 15.8134C17.1313 15.8054 16.9826 15.8054 16.8339 15.8054C16.6853 15.8054 16.4442 15.8616 16.2393 16.0826C16.0344 16.3076 15.4598 16.846 15.4598 17.9429C15.4598 19.0397 16.2594 20.1004 16.3679 20.2491C16.4804 20.3978 17.9388 22.6478 20.1768 23.6161C21.5911 24.2268 22.1455 24.279 22.8527 24.1746C23.2826 24.1103 24.1705 23.6362 24.3554 23.1138C24.5402 22.5915 24.5402 22.1455 24.4839 22.0531C24.4317 21.9527 24.283 21.8964 24.0621 21.7879Z" fill="white"/>
</svg>
