<svg width="1511" height="1048" viewBox="0 0 1511 1048" fill="none" xmlns="http://www.w3.org/2000/svg">
<path d="M1511 933H0V934H1511V933Z" fill="#EBEBEB"/>
<path d="M1360 981H1260V982H1360V981Z" fill="#EBEBEB"/>
<path d="M1001 989H975V990H1001V989Z" fill="#EBEBEB"/>
<path d="M1257 953H1199V954H1257V953Z" fill="#EBEBEB"/>
<path d="M290 958H159V959H290V958Z" fill="#EBEBEB"/>
<path d="M335 958H316V959H335V958Z" fill="#EBEBEB"/>
<path d="M680 971H397V972H680V971Z" fill="#EBEBEB"/>
<path d="M1198.7 109.312L1215 112L1198.7 114.688L1195.98 131L1193.3 114.688L1177 112L1193.3 109.312L1195.98 93L1198.7 109.312Z" fill="#EBEBEB"/>
<path d="M1199.32 112.5L1209 126L1195.48 116.335L1182 126L1191.68 112.5L1182 99L1195.48 108.695L1209 99L1199.32 112.5Z" fill="#EBEBEB"/>
<path d="M1199 111.5C1199 112.428 1198.63 113.318 1197.97 113.975C1197.32 114.631 1196.43 115 1195.5 115C1194.57 115 1193.68 114.631 1193.03 113.975C1192.37 113.318 1192 112.428 1192 111.5C1192 110.572 1192.37 109.682 1193.03 109.025C1193.68 108.369 1194.57 108 1195.5 108C1196.43 108 1197.32 108.369 1197.97 109.025C1198.63 109.682 1199 110.572 1199 111.5Z" fill="#E0E0E0"/>
<path d="M1311.67 734.329L1328 737.015L1311.67 739.701L1308.98 756L1306.3 739.701L1290 737.015L1306.3 734.329L1308.98 718L1311.67 734.329Z" fill="#EBEBEB"/>
<path d="M1313.34 736.5L1323 750L1309.5 740.305L1296 750L1305.7 736.5L1296 723L1309.5 732.665L1323 723L1313.34 736.5Z" fill="#EBEBEB"/>
<path d="M1312 736.5C1312 737.192 1311.79 737.869 1311.41 738.444C1311.03 739.02 1310.48 739.469 1309.84 739.734C1309.2 739.998 1308.5 740.068 1307.82 739.933C1307.14 739.798 1306.51 739.464 1306.03 738.975C1305.54 738.485 1305.2 737.862 1305.07 737.183C1304.93 736.504 1305 735.8 1305.27 735.161C1305.53 734.521 1305.98 733.974 1306.56 733.59C1307.13 733.205 1307.81 733 1308.5 733C1309.43 733 1310.32 733.369 1310.97 734.025C1311.63 734.682 1312 735.572 1312 736.5Z" fill="#E0E0E0"/>
<path d="M416.701 966.329L433 969.015L416.701 971.701L414.015 988L411.329 971.701L395 969.015L411.329 966.329L414.015 950L416.701 966.329Z" fill="#EBEBEB"/>
<path d="M418.305 969.5L428 983L414.5 973.305L401 983L410.665 969.5L401 956L414.5 965.665L428 956L418.305 969.5Z" fill="#EBEBEB"/>
<path d="M417 969.5C417 970.194 416.794 970.871 416.408 971.448C416.022 972.024 415.474 972.472 414.833 972.736C414.192 973 413.486 973.068 412.807 972.931C412.127 972.793 411.503 972.457 411.015 971.965C410.527 971.473 410.196 970.846 410.064 970.166C409.932 969.485 410.005 968.78 410.275 968.141C410.544 967.502 410.997 966.957 411.576 966.576C412.155 966.195 412.835 965.995 413.528 966C414.452 966.008 415.335 966.38 415.985 967.035C416.635 967.691 417 968.577 417 969.5V969.5Z" fill="#E0E0E0"/>
<path d="M994.671 43.2988L1011 45.9847L994.671 48.6707L991.985 65L989.299 48.6707L973 45.9847L989.299 43.2988L991.985 27L994.671 43.2988Z" fill="#EBEBEB"/>
<path d="M996.335 45.5L1006 59L992.5 49.3352L979 59L988.695 45.5L979 32L992.5 41.6954L1006 32L996.335 45.5Z" fill="#EBEBEB"/>
<path d="M995 45.5C995 46.4282 994.631 47.3185 993.975 47.9749C993.318 48.6312 992.428 49 991.5 49C990.572 49 989.682 48.6312 989.025 47.9749C988.369 47.3185 988 46.4282 988 45.5C988 44.5717 988.369 43.6815 989.025 43.0251C989.682 42.3688 990.572 42 991.5 42C992.428 42 993.318 42.3688 993.975 43.0251C994.631 43.6815 995 44.5717 995 45.5V45.5Z" fill="#E0E0E0"/>
<path d="M1121.69 322.312L1138 325L1121.69 327.688L1119 344L1116.31 327.688L1100 325L1116.31 322.312L1119 306L1121.69 322.312Z" fill="#EBEBEB"/>
<path d="M1123.3 324.5L1133 338L1119.5 328.335L1106 338L1115.7 324.5L1106 311L1119.5 320.695L1133 311L1123.3 324.5Z" fill="#EBEBEB"/>
<path d="M1122 324.5C1122 325.192 1121.79 325.869 1121.41 326.444C1121.03 327.02 1120.48 327.469 1119.84 327.734C1119.2 327.998 1118.5 328.068 1117.82 327.933C1117.14 327.798 1116.51 327.464 1116.03 326.975C1115.54 326.485 1115.2 325.862 1115.07 325.183C1114.93 324.504 1115 323.8 1115.27 323.161C1115.53 322.521 1115.98 321.974 1116.56 321.59C1117.13 321.205 1117.81 321 1118.5 321C1119.43 321.007 1120.31 321.378 1120.97 322.033C1121.62 322.688 1121.99 323.574 1122 324.5V324.5Z" fill="#E0E0E0"/>
<path d="M1119.69 936.329L1136 939.015L1119.69 941.701L1117 958L1114.31 941.701L1098 939.015L1114.31 936.329L1117 920L1119.69 936.329Z" fill="#EBEBEB"/>
<path d="M1121.3 938.5L1131 952L1117.5 942.305L1104 952L1113.66 938.5L1104 925L1117.5 934.665L1131 925L1121.3 938.5Z" fill="#EBEBEB"/>
<path d="M1120 938.5C1120 939.428 1119.63 940.319 1118.97 940.975C1118.32 941.631 1117.43 942 1116.5 942C1115.57 942 1114.68 941.631 1114.03 940.975C1113.37 940.319 1113 939.428 1113 938.5C1113 937.572 1113.37 936.682 1114.03 936.025C1114.68 935.369 1115.57 935 1116.5 935C1117.43 935 1118.32 935.369 1118.97 936.025C1119.63 936.682 1120 937.572 1120 938.5Z" fill="#E0E0E0"/>
<path d="M181.26 589.74L195 592.015L181.26 594.26L178.985 608L176.74 594.26L163 592.015L176.74 589.74L178.985 576L181.26 589.74Z" fill="#EBEBEB"/>
<path d="M182.768 592.5L191 604L179.5 595.737L168 604L176.263 592.5L168 581L179.5 589.232L191 581L182.768 592.5Z" fill="#EBEBEB"/>
<path d="M181.997 591.859C182.025 592.457 181.874 593.05 181.562 593.562C181.25 594.073 180.792 594.48 180.247 594.729C179.702 594.978 179.095 595.058 178.504 594.959C177.913 594.86 177.365 594.586 176.931 594.173C176.497 593.76 176.197 593.226 176.069 592.641C175.941 592.056 175.992 591.446 176.214 590.89C176.436 590.334 176.82 589.857 177.316 589.52C177.812 589.184 178.397 589.004 178.997 589.004C179.384 588.984 179.771 589.044 180.134 589.179C180.497 589.313 180.829 589.521 181.11 589.788C181.391 590.055 181.614 590.376 181.766 590.732C181.919 591.088 181.997 591.472 181.997 591.859Z" fill="#E0E0E0"/>
<path d="M1176.26 600.71L1190 602.985L1176.26 605.26L1174.02 619L1171.74 605.26L1158 602.985L1171.74 600.71L1174.02 587L1176.26 600.71Z" fill="#EBEBEB"/>
<path d="M1176.74 602.5L1185 614L1173.5 605.737L1162 614L1170.23 602.5L1162 591L1173.5 599.263L1185 591L1176.74 602.5Z" fill="#EBEBEB"/>
<path d="M1173 605C1174.66 605 1176 603.657 1176 602C1176 600.343 1174.66 599 1173 599C1171.34 599 1170 600.343 1170 602C1170 603.657 1171.34 605 1173 605Z" fill="#E0E0E0"/>
<path d="M1322.26 324.74L1336 326.985L1322.26 329.26L1319.98 343L1317.74 329.26L1304 326.985L1317.74 324.74L1319.98 311L1322.26 324.74Z" fill="#EBEBEB"/>
<path d="M1322.77 327.5L1331 339L1319.5 330.768L1308 339L1316.26 327.5L1308 316L1319.5 324.263L1331 316L1322.77 327.5Z" fill="#EBEBEB"/>
<path d="M1319 330C1320.66 330 1322 328.657 1322 327C1322 325.343 1320.66 324 1319 324C1317.34 324 1316 325.343 1316 327C1316 328.657 1317.34 330 1319 330Z" fill="#E0E0E0"/>
<path d="M370.26 51.7403L384 54.0152L370.26 56.29L367.985 70L365.74 56.29L352 54.0152L365.74 51.7403L367.985 38L370.26 51.7403Z" fill="#EBEBEB"/>
<path d="M371.768 54.5L380 66L368.5 57.7373L357 66L365.263 54.5L357 43L368.5 51.2319L380 43L371.768 54.5Z" fill="#EBEBEB"/>
<path d="M368 57C369.657 57 371 55.6568 371 54C371 52.3432 369.657 51 368 51C366.343 51 365 52.3432 365 54C365 55.6568 366.343 57 368 57Z" fill="#E0E0E0"/>
<path d="M458.277 677.723L472 680L458.277 682.247L456 696L453.753 682.247L440 680L453.753 677.723L456 664L458.277 677.723Z" fill="#EBEBEB"/>
<path d="M459.768 679.5L468 691L456.5 682.737L445 691L453.263 679.5L445 668L456.5 676.232L468 668L459.768 679.5Z" fill="#EBEBEB"/>
<path d="M456 682C457.657 682 459 680.657 459 679C459 677.343 457.657 676 456 676C454.343 676 453 677.343 453 679C453 680.657 454.343 682 456 682Z" fill="#E0E0E0"/>
<path d="M748.26 923.753L762 926L748.26 928.277L745.985 942L743.71 928.277L730 926L743.71 923.753L745.985 910L748.26 923.753Z" fill="#EBEBEB"/>
<path d="M748.768 925.5L757 937L745.5 928.768L734 937L742.263 925.5L734 914L745.5 922.263L757 914L748.768 925.5Z" fill="#EBEBEB"/>
<path d="M747.996 925.002C747.996 925.595 747.82 926.175 747.491 926.668C747.162 927.161 746.693 927.545 746.145 927.772C745.598 927.999 744.995 928.058 744.413 927.942C743.832 927.827 743.297 927.541 742.878 927.122C742.459 926.703 742.173 926.168 742.058 925.587C741.942 925.005 742.001 924.402 742.228 923.855C742.455 923.307 742.839 922.839 743.332 922.509C743.826 922.18 744.405 922.004 744.998 922.004C745.397 921.983 745.796 922.047 746.169 922.19C746.542 922.334 746.881 922.554 747.164 922.836C747.446 923.119 747.666 923.458 747.81 923.831C747.953 924.204 748.017 924.603 747.996 925.002Z" fill="#E0E0E0"/>
<path d="M890.26 288.74L904 290.985L890.26 293.26L887.985 307L885.74 293.26L872 290.985L885.74 288.74L887.985 275L890.26 288.74Z" fill="#EBEBEB"/>
<path d="M890.768 291.5L899 303L887.5 294.768L876 303L884.263 291.5L876 280L887.5 288.263L899 280L890.768 291.5Z" fill="#EBEBEB"/>
<path d="M889.996 291.002C889.996 291.595 889.82 292.175 889.491 292.668C889.161 293.161 888.693 293.545 888.145 293.772C887.598 293.999 886.995 294.058 886.413 293.942C885.832 293.827 885.297 293.541 884.878 293.122C884.459 292.703 884.173 292.168 884.058 291.587C883.942 291.005 884.001 290.402 884.228 289.855C884.455 289.307 884.839 288.838 885.332 288.509C885.825 288.18 886.405 288.004 886.998 288.004C887.397 287.983 887.796 288.047 888.169 288.19C888.542 288.334 888.881 288.554 889.164 288.836C889.446 289.119 889.666 289.458 889.81 289.831C889.953 290.204 890.017 290.603 889.996 291.002V291.002Z" fill="#E0E0E0"/>
<path d="M264.688 221.329L281 223.985L264.688 226.671L262 243L259.312 226.671L243 223.985L259.312 221.329L262 205L264.688 221.329Z" fill="#EBEBEB"/>
<path d="M266.305 223.485L276 237L262.5 227.316L249 237L258.665 223.485L249 210L262.5 219.684L276 210L266.305 223.485Z" fill="#EBEBEB"/>
<path d="M265 223.472C265.005 224.165 264.805 224.845 264.424 225.424C264.043 226.003 263.498 226.456 262.859 226.725C262.22 226.995 261.515 227.068 260.835 226.936C260.154 226.804 259.527 226.473 259.035 225.985C258.543 225.497 258.207 224.873 258.069 224.193C257.932 223.514 258 222.808 258.264 222.167C258.528 221.526 258.976 220.978 259.552 220.592C260.129 220.206 260.806 220 261.5 220C262.423 220 263.309 220.365 263.965 221.015C264.62 221.665 264.992 222.548 265 223.472V223.472Z" fill="#E0E0E0"/>
<path d="M647.688 16.2988L664 18.9847L647.688 21.6707L645 38L642.312 21.6707L626 18.9847L642.312 16.2988L645 0L647.688 16.2988Z" fill="#EBEBEB"/>
<path d="M648.305 19.5L658 33L644.5 23.3352L631 33L640.695 19.5L631 6L644.5 15.6954L658 6L648.305 19.5Z" fill="#EBEBEB"/>
<path d="M648 18.5C648 19.4283 647.631 20.3185 646.975 20.9749C646.318 21.6312 645.428 22 644.5 22C643.572 22 642.682 21.6312 642.025 20.9749C641.369 20.3185 641 19.4283 641 18.5C641 17.5718 641.369 16.6815 642.025 16.0251C642.682 15.3688 643.572 15 644.5 15C645.428 15 646.318 15.3688 646.975 16.0251C647.631 16.6815 648 17.5718 648 18.5V18.5Z" fill="#E0E0E0"/>
<path d="M544.701 353.312L561 356L544.701 358.688L542.015 375L539.299 358.688L523 356L539.299 353.312L542.015 337L544.701 353.312Z" fill="#EBEBEB"/>
<path d="M545.324 356.5L555 370L541.515 360.335L528 370L537.676 356.5L528 343L541.515 352.695L555 343L545.324 356.5Z" fill="#EBEBEB"/>
<path d="M545 355.5C545 356.194 544.794 356.871 544.408 357.447C544.022 358.024 543.474 358.472 542.833 358.736C542.192 359 541.486 359.068 540.807 358.931C540.127 358.793 539.503 358.457 539.015 357.965C538.527 357.473 538.196 356.846 538.064 356.165C537.932 355.485 538.005 354.78 538.275 354.141C538.544 353.502 538.997 352.957 539.576 352.576C540.155 352.195 540.835 351.995 541.528 352C541.986 352 542.44 352.091 542.863 352.267C543.286 352.443 543.67 352.702 543.993 353.027C544.316 353.352 544.571 353.738 544.744 354.163C544.917 354.587 545.004 355.042 545 355.5Z" fill="#E0E0E0"/>
<path d="M295.688 864.312L312 867L295.688 869.688L293 886L290.312 869.688L274 867L290.312 864.312L293 848L295.688 864.312Z" fill="#EBEBEB"/>
<path d="M296.305 866.5L306 880L292.5 870.335L279 880L288.665 866.5L279 853L292.5 862.695L306 853L296.305 866.5Z" fill="#EBEBEB"/>
<path d="M296 866.5C296 867.192 295.795 867.869 295.41 868.445C295.026 869.02 294.479 869.469 293.839 869.734C293.2 869.998 292.496 870.068 291.817 869.933C291.138 869.798 290.515 869.464 290.025 868.975C289.536 868.485 289.202 867.862 289.067 867.183C288.932 866.504 289.002 865.8 289.266 865.161C289.531 864.521 289.98 863.974 290.556 863.59C291.131 863.205 291.808 863 292.5 863C293.428 863 294.318 863.369 294.975 864.025C295.631 864.682 296 865.572 296 866.5V866.5Z" fill="#E0E0E0"/>
<path d="M947.701 664.312L964 667L947.701 669.688L945.015 686L942.329 669.688L926 667L942.329 664.312L945.015 648L947.701 664.312Z" fill="#EBEBEB"/>
<path d="M949.305 666.5L959 680L945.5 670.305L932 680L941.665 666.5L932 653L945.5 662.665L959 653L949.305 666.5Z" fill="#EBEBEB"/>
<path d="M948 666.5C948 667.428 947.631 668.318 946.975 668.975C946.318 669.631 945.428 670 944.5 670C943.572 670 942.681 669.631 942.025 668.975C941.369 668.318 941 667.428 941 666.5C941 665.572 941.369 664.682 942.025 664.025C942.681 663.369 943.572 663 944.5 663C945.428 663 946.318 663.369 946.975 664.025C947.631 664.682 948 665.572 948 666.5Z" fill="#E0E0E0"/>
<path d="M557.921 120.669C562.478 92.5934 543.413 66.1396 515.338 61.5823C487.263 57.0251 460.809 76.0902 456.252 104.165C451.694 132.241 470.759 158.694 498.835 163.252C526.91 167.809 553.364 148.744 557.921 120.669Z" fill="#F5F5F5"/>
<path d="M1321.08 494.537C1327.61 466.855 1310.47 439.118 1282.78 432.584C1255.1 426.051 1227.36 443.195 1220.83 470.877C1214.3 498.559 1231.44 526.296 1259.12 532.83C1286.8 539.364 1314.54 522.219 1321.08 494.537Z" fill="#F5F5F5"/>
<path d="M855.5 1048C883.943 1048 907 1024.94 907 996.5C907 968.057 883.943 945 855.5 945C827.057 945 804 968.057 804 996.5C804 1024.94 827.057 1048 855.5 1048Z" fill="#F5F5F5"/>
<path d="M1106.2 152.842C1109.94 136.985 1100.12 121.097 1084.26 117.354C1068.41 113.612 1052.52 123.432 1048.78 139.289C1045.03 155.146 1054.85 171.034 1070.71 174.776C1086.57 178.519 1102.46 168.698 1106.2 152.842Z" fill="#F5F5F5"/>
<path d="M739.5 759C755.792 759 769 745.792 769 729.5C769 713.208 755.792 700 739.5 700C723.208 700 710 713.208 710 729.5C710 745.792 723.208 759 739.5 759Z" fill="#F5F5F5"/>
<path d="M325.579 649.86C337.099 638.339 337.099 619.661 325.579 608.14C314.058 596.62 295.38 596.62 283.86 608.14C272.339 619.661 272.339 638.339 283.86 649.86C295.38 661.38 314.058 661.38 325.579 649.86Z" fill="#F5F5F5"/>
</svg>
