<svg width="109" height="48" viewBox="0 0 109 48" fill="none" xmlns="http://www.w3.org/2000/svg">
<path d="M28.7296 4C30.2743 4 31.3859 4.54012 32.0645 5.62036C32.7574 6.68638 32.8224 7.97272 32.2594 9.47937L29.4442 17.1121C28.8812 18.6188 27.8635 19.9051 26.3909 20.9711C24.9184 22.0371 23.4098 22.5701 21.8651 22.5701L22.8612 34.9574L15.9967 34.9787L15.0006 22.5701H14.849L10.2582 34.9574H4L12.9001 10.8865H14.156L14.4159 10.2043H13.1599V10.1616H5.34259L5.58079 9.47937H16.9062L17.166 8.79711H12.0339L12.2937 8.11486H16.0617L16.3215 7.4326H9.5436L9.7818 6.72902H20.2627L20.5225 6.04677H12.1855L12.4453 5.36451H18.7252L18.985 4.68226H8.89396L9.15381 4H21.7135H28.7296ZM23.4242 16.3872L25.7196 10.2043H19.4398L17.1444 16.3872H23.4242ZM10.7996 5.36451H11.5142L11.2543 6.04677H10.5397L10.7996 5.36451Z" fill="#00BA35"/>
<path d="M69.1061 4.02132H75.3859L63.9306 35L57.6508 34.9787L63.151 20.1609L51.3926 35H45.091L44.3115 20.1396L38.8328 34.9787L32.553 34.9574L41.4531 10.8865H42.709L42.9472 10.2043L33.8956 10.1829L34.1338 9.50069H45.4592L45.719 8.81843H40.9333L41.1715 8.11486H44.6146L44.8745 7.4326H38.0966L38.3348 6.75034H48.8157L49.0539 6.06809H40.7385L40.9983 5.38583H47.2782L47.538 4.68226H37.4469L37.7068 4H50.2665L51.4359 26.3226L69.1061 4.02132ZM39.3526 5.38583H40.0455L39.8073 6.06809H39.0927L39.3526 5.38583Z" fill="#00BA35"/>
<path d="M102.726 10.1616L90.1449 10.2043L83.2804 28.7744H95.8401C95.4359 29.8831 95.0389 30.9562 94.6491 31.9938C94.2737 33.0314 94.0066 33.7563 93.8478 34.1685C93.7035 34.5665 93.6024 34.8365 93.5447 34.9787L74.7051 34.9574L83.6052 10.8865H84.8612L85.121 10.2043H83.865V10.1616H76.0477L76.3076 9.47937H87.6113L87.8712 8.79711H83.0855L83.3453 8.11486H86.7668L87.0266 7.4326H80.2487L80.5086 6.75034H90.9678L91.2276 6.04677H82.9122L83.1504 5.36451H89.4519L89.6901 4.68226H79.6207L79.8589 4H105L102.726 10.1616ZM81.5047 5.36451H82.2193L81.9594 6.04677H81.2448L81.5047 5.36451Z" fill="#00BA35"/>
<mask id="path-2-outside-1_691_40045" maskUnits="userSpaceOnUse" x="0" y="1" width="109" height="37" fill="black">
<rect fill="white" y="1" width="109" height="37"/>
<path fill-rule="evenodd" clip-rule="evenodd" d="M20.5947 5.51108L20.3354 6.19506H9.87655L9.63885 6.90041H16.4025L16.1432 7.58438H12.3832L12.1239 8.26836H17.2453L16.986 8.95233H5.68438L5.44668 9.63631H13.2476V9.67906H14.5009L14.2416 10.363H12.9883L4.10692 34.4946H10.352L14.9331 22.0761H15.0844L16.0784 34.5159L22.9285 34.4946L21.9345 22.0761C22.2809 22.0761 22.6254 22.0491 22.9682 21.9952C24.1507 21.809 25.3116 21.3016 26.4508 20.4731C27.9202 19.4043 28.9358 18.1148 29.4976 16.6043L32.3068 8.95233C32.8687 7.44189 32.8038 6.15231 32.1124 5.08359C31.4353 4.00063 30.326 3.45915 28.7845 3.45915H9.24989L8.99058 4.14313H19.0604L18.8011 4.8271H12.5345L12.2752 5.51108H20.5947ZM11.346 5.51108L11.6053 4.8271H10.8922L10.6329 5.51108H11.346ZM7.88411 7.49318L8.52134 5.60228H6.86189L8.22759 2H28.7845C30.7156 2 32.3579 2.70985 33.361 4.30654C33.9995 5.29802 34.2315 6.38629 34.1405 7.51456H36.3584L37.023 5.60228H35.3548L36.7205 2H51.6772L52.7125 21.8561L68.3559 2.02137H77.4497L75.4357 7.49318H78.395L79.1119 5.60228H77.5016L78.7535 2H107L103.66 11.0919L91.1049 11.1347L85.3273 26.8369H97.8507L97.1423 28.789C96.7384 29.9018 96.3417 30.9793 95.9519 32.0217C95.583 33.0462 95.3147 33.7782 95.1503 34.2077C95.0095 34.5974 94.9016 34.8882 94.8329 35.0579L94.4616 35.9762L72.5573 35.9513L81.7052 11.0955H74.1098L64.943 36L55.5377 35.9679L58.5299 27.8696L52.1199 35.9965H43.7106L43.2355 26.8986L39.8986 35.9786L30.4956 35.9466L39.6289 11.1303L33.0824 11.1148L30.8821 17.1082C30.2085 18.919 28.998 20.4316 27.3246 21.6486C26.1202 22.5247 24.8484 23.1164 23.5186 23.3797L24.5247 35.9488L14.7155 35.9794L14.1207 28.5352L11.384 35.9537H2L11.1488 11.0955H3.37968L4.63157 7.49318H7.88411ZM32.5999 34.4946L38.8665 34.5159L44.3336 19.6395L45.1115 34.5373H51.3998L63.1336 19.6608L57.6448 34.5159L63.9115 34.5373L75.3427 3.48052H69.0761L51.443 25.838L50.2761 3.45915H37.7428L37.4835 4.14313H47.5534L47.2941 4.84848H41.0274L40.7681 5.53245H49.066L48.8283 6.21643H38.3695L38.1318 6.90041H44.8955L44.6361 7.58438H41.2003L40.9626 8.28973H45.7382L45.4789 8.97371H34.1773L33.9396 9.65769L42.9722 9.67906L42.7345 10.363H41.4812L32.5999 34.4946ZM40.0766 4.84848H39.3851L39.1258 5.53245H39.8389L40.0766 4.84848ZM74.6633 34.4946L93.4633 34.5159C93.5209 34.3735 93.6217 34.1027 93.7658 33.7037C93.9243 33.2905 94.1908 32.5638 94.5653 31.5236C94.7816 30.9451 95.0002 30.3557 95.2209 29.7552C95.3971 29.2758 95.5748 28.7894 95.7538 28.296H83.2205L90.0706 9.67906L102.626 9.63631L104.894 3.45915H79.8063L79.5686 4.14313H89.6168L89.3791 4.8271H83.0909L82.8532 5.51108H91.1511L90.8918 6.21643H80.4546L80.1953 6.90041H86.9589L86.6996 7.58438H83.2854L83.0261 8.26836H87.8017L87.5424 8.95233H76.2624L76.0031 9.63631H83.804V9.67906H85.0573L84.798 10.363H83.5447L74.6633 34.4946ZM82.1617 4.8271H81.4486L81.1893 5.51108H81.9024L82.1617 4.8271ZM25.7809 9.67906H19.5142L17.2237 15.8776H23.4903L25.7809 9.67906ZM23.671 11.1382H20.5457L19.3335 14.4184H22.4589L23.671 11.1382Z"/>
</mask>
<path fill-rule="evenodd" clip-rule="evenodd" d="M20.5947 5.51108L20.3354 6.19506H9.87655L9.63885 6.90041H16.4025L16.1432 7.58438H12.3832L12.1239 8.26836H17.2453L16.986 8.95233H5.68438L5.44668 9.63631H13.2476V9.67906H14.5009L14.2416 10.363H12.9883L4.10692 34.4946H10.352L14.9331 22.0761H15.0844L16.0784 34.5159L22.9285 34.4946L21.9345 22.0761C22.2809 22.0761 22.6254 22.0491 22.9682 21.9952C24.1507 21.809 25.3116 21.3016 26.4508 20.4731C27.9202 19.4043 28.9358 18.1148 29.4976 16.6043L32.3068 8.95233C32.8687 7.44189 32.8038 6.15231 32.1124 5.08359C31.4353 4.00063 30.326 3.45915 28.7845 3.45915H9.24989L8.99058 4.14313H19.0604L18.8011 4.8271H12.5345L12.2752 5.51108H20.5947ZM11.346 5.51108L11.6053 4.8271H10.8922L10.6329 5.51108H11.346ZM7.88411 7.49318L8.52134 5.60228H6.86189L8.22759 2H28.7845C30.7156 2 32.3579 2.70985 33.361 4.30654C33.9995 5.29802 34.2315 6.38629 34.1405 7.51456H36.3584L37.023 5.60228H35.3548L36.7205 2H51.6772L52.7125 21.8561L68.3559 2.02137H77.4497L75.4357 7.49318H78.395L79.1119 5.60228H77.5016L78.7535 2H107L103.66 11.0919L91.1049 11.1347L85.3273 26.8369H97.8507L97.1423 28.789C96.7384 29.9018 96.3417 30.9793 95.9519 32.0217C95.583 33.0462 95.3147 33.7782 95.1503 34.2077C95.0095 34.5974 94.9016 34.8882 94.8329 35.0579L94.4616 35.9762L72.5573 35.9513L81.7052 11.0955H74.1098L64.943 36L55.5377 35.9679L58.5299 27.8696L52.1199 35.9965H43.7106L43.2355 26.8986L39.8986 35.9786L30.4956 35.9466L39.6289 11.1303L33.0824 11.1148L30.8821 17.1082C30.2085 18.919 28.998 20.4316 27.3246 21.6486C26.1202 22.5247 24.8484 23.1164 23.5186 23.3797L24.5247 35.9488L14.7155 35.9794L14.1207 28.5352L11.384 35.9537H2L11.1488 11.0955H3.37968L4.63157 7.49318H7.88411ZM32.5999 34.4946L38.8665 34.5159L44.3336 19.6395L45.1115 34.5373H51.3998L63.1336 19.6608L57.6448 34.5159L63.9115 34.5373L75.3427 3.48052H69.0761L51.443 25.838L50.2761 3.45915H37.7428L37.4835 4.14313H47.5534L47.2941 4.84848H41.0274L40.7681 5.53245H49.066L48.8283 6.21643H38.3695L38.1318 6.90041H44.8955L44.6361 7.58438H41.2003L40.9626 8.28973H45.7382L45.4789 8.97371H34.1773L33.9396 9.65769L42.9722 9.67906L42.7345 10.363H41.4812L32.5999 34.4946ZM40.0766 4.84848H39.3851L39.1258 5.53245H39.8389L40.0766 4.84848ZM74.6633 34.4946L93.4633 34.5159C93.5209 34.3735 93.6217 34.1027 93.7658 33.7037C93.9243 33.2905 94.1908 32.5638 94.5653 31.5236C94.7816 30.9451 95.0002 30.3557 95.2209 29.7552C95.3971 29.2758 95.5748 28.7894 95.7538 28.296H83.2205L90.0706 9.67906L102.626 9.63631L104.894 3.45915H79.8063L79.5686 4.14313H89.6168L89.3791 4.8271H83.0909L82.8532 5.51108H91.1511L90.8918 6.21643H80.4546L80.1953 6.90041H86.9589L86.6996 7.58438H83.2854L83.0261 8.26836H87.8017L87.5424 8.95233H76.2624L76.0031 9.63631H83.804V9.67906H85.0573L84.798 10.363H83.5447L74.6633 34.4946ZM82.1617 4.8271H81.4486L81.1893 5.51108H81.9024L82.1617 4.8271ZM25.7809 9.67906H19.5142L17.2237 15.8776H23.4903L25.7809 9.67906ZM23.671 11.1382H20.5457L19.3335 14.4184H22.4589L23.671 11.1382Z" fill="#00BA35"/>
<path fill-rule="evenodd" clip-rule="evenodd" d="M20.5947 5.51108L20.3354 6.19506H9.87655L9.63885 6.90041H16.4025L16.1432 7.58438H12.3832L12.1239 8.26836H17.2453L16.986 8.95233H5.68438L5.44668 9.63631H13.2476V9.67906H14.5009L14.2416 10.363H12.9883L4.10692 34.4946H10.352L14.9331 22.0761H15.0844L16.0784 34.5159L22.9285 34.4946L21.9345 22.0761C22.2809 22.0761 22.6254 22.0491 22.9682 21.9952C24.1507 21.809 25.3116 21.3016 26.4508 20.4731C27.9202 19.4043 28.9358 18.1148 29.4976 16.6043L32.3068 8.95233C32.8687 7.44189 32.8038 6.15231 32.1124 5.08359C31.4353 4.00063 30.326 3.45915 28.7845 3.45915H9.24989L8.99058 4.14313H19.0604L18.8011 4.8271H12.5345L12.2752 5.51108H20.5947ZM11.346 5.51108L11.6053 4.8271H10.8922L10.6329 5.51108H11.346ZM7.88411 7.49318L8.52134 5.60228H6.86189L8.22759 2H28.7845C30.7156 2 32.3579 2.70985 33.361 4.30654C33.9995 5.29802 34.2315 6.38629 34.1405 7.51456H36.3584L37.023 5.60228H35.3548L36.7205 2H51.6772L52.7125 21.8561L68.3559 2.02137H77.4497L75.4357 7.49318H78.395L79.1119 5.60228H77.5016L78.7535 2H107L103.66 11.0919L91.1049 11.1347L85.3273 26.8369H97.8507L97.1423 28.789C96.7384 29.9018 96.3417 30.9793 95.9519 32.0217C95.583 33.0462 95.3147 33.7782 95.1503 34.2077C95.0095 34.5974 94.9016 34.8882 94.8329 35.0579L94.4616 35.9762L72.5573 35.9513L81.7052 11.0955H74.1098L64.943 36L55.5377 35.9679L58.5299 27.8696L52.1199 35.9965H43.7106L43.2355 26.8986L39.8986 35.9786L30.4956 35.9466L39.6289 11.1303L33.0824 11.1148L30.8821 17.1082C30.2085 18.919 28.998 20.4316 27.3246 21.6486C26.1202 22.5247 24.8484 23.1164 23.5186 23.3797L24.5247 35.9488L14.7155 35.9794L14.1207 28.5352L11.384 35.9537H2L11.1488 11.0955H3.37968L4.63157 7.49318H7.88411ZM32.5999 34.4946L38.8665 34.5159L44.3336 19.6395L45.1115 34.5373H51.3998L63.1336 19.6608L57.6448 34.5159L63.9115 34.5373L75.3427 3.48052H69.0761L51.443 25.838L50.2761 3.45915H37.7428L37.4835 4.14313H47.5534L47.2941 4.84848H41.0274L40.7681 5.53245H49.066L48.8283 6.21643H38.3695L38.1318 6.90041H44.8955L44.6361 7.58438H41.2003L40.9626 8.28973H45.7382L45.4789 8.97371H34.1773L33.9396 9.65769L42.9722 9.67906L42.7345 10.363H41.4812L32.5999 34.4946ZM40.0766 4.84848H39.3851L39.1258 5.53245H39.8389L40.0766 4.84848ZM74.6633 34.4946L93.4633 34.5159C93.5209 34.3735 93.6217 34.1027 93.7658 33.7037C93.9243 33.2905 94.1908 32.5638 94.5653 31.5236C94.7816 30.9451 95.0002 30.3557 95.2209 29.7552C95.3971 29.2758 95.5748 28.7894 95.7538 28.296H83.2205L90.0706 9.67906L102.626 9.63631L104.894 3.45915H79.8063L79.5686 4.14313H89.6168L89.3791 4.8271H83.0909L82.8532 5.51108H91.1511L90.8918 6.21643H80.4546L80.1953 6.90041H86.9589L86.6996 7.58438H83.2854L83.0261 8.26836H87.8017L87.5424 8.95233H76.2624L76.0031 9.63631H83.804V9.67906H85.0573L84.798 10.363H83.5447L74.6633 34.4946ZM82.1617 4.8271H81.4486L81.1893 5.51108H81.9024L82.1617 4.8271ZM25.7809 9.67906H19.5142L17.2237 15.8776H23.4903L25.7809 9.67906ZM23.671 11.1382H20.5457L19.3335 14.4184H22.4589L23.671 11.1382Z" stroke="black" stroke-width="2" mask="url(#path-2-outside-1_691_40045)"/>
<path d="M1.09771 42.026V46.0423H0V41.0815H1.04761L1.09771 42.026ZM2.60536 41.0494L2.59625 42.0764C2.52945 42.0642 2.45657 42.055 2.37762 42.0489C2.30171 42.0428 2.22579 42.0397 2.14988 42.0397C1.96161 42.0397 1.79612 42.0672 1.6534 42.1223C1.51068 42.1742 1.39074 42.2506 1.29357 42.3515C1.19944 42.4493 1.12656 42.5685 1.07494 42.7091C1.02332 42.8497 0.992952 43.0071 0.983843 43.1814L0.733327 43.1997C0.733327 42.8879 0.763693 42.5991 0.824424 42.3332C0.885155 42.0672 0.976251 41.8334 1.09771 41.6317C1.22221 41.43 1.37708 41.2725 1.56231 41.1594C1.75057 41.0464 1.96768 40.9898 2.21365 40.9898C2.28045 40.9898 2.35181 40.9959 2.42772 41.0082C2.50667 41.0204 2.56589 41.0341 2.60536 41.0494Z" fill="black"/>
<path d="M6.25833 44.8732V41.0815H7.3606V46.0423H6.3221L6.25833 44.8732ZM6.4132 43.8416L6.78214 43.8324C6.78214 44.1656 6.7457 44.4727 6.67282 44.7539C6.59994 45.0321 6.48759 45.2751 6.33576 45.4829C6.18394 45.6877 5.9896 45.8482 5.75274 45.9643C5.51589 46.0774 5.23198 46.134 4.90099 46.134C4.66111 46.134 4.44096 46.0988 4.24054 46.0285C4.04013 45.9582 3.86705 45.8497 3.72129 45.703C3.57858 45.5563 3.46774 45.3653 3.38879 45.1299C3.30984 44.8945 3.27037 44.6133 3.27037 44.2863V41.0815H4.36808V44.2955C4.36808 44.4758 4.38933 44.6271 4.43185 44.7494C4.47436 44.8686 4.53205 44.9648 4.60493 45.0382C4.67781 45.1116 4.76283 45.1635 4.86 45.1941C4.95717 45.2247 5.06041 45.2399 5.16973 45.2399C5.48249 45.2399 5.72845 45.1788 5.90761 45.0565C6.0898 44.9312 6.21886 44.7631 6.29477 44.5522C6.37372 44.3413 6.4132 44.1044 6.4132 43.8416Z" fill="black"/>
<path d="M11.2504 44.6989C11.2504 44.5889 11.2231 44.4896 11.1684 44.4009C11.1138 44.3092 11.009 44.2267 10.8541 44.1533C10.7023 44.08 10.4776 44.0127 10.18 43.9516C9.91889 43.8935 9.679 43.8248 9.46037 43.7453C9.24478 43.6628 9.05955 43.5634 8.90468 43.4473C8.74982 43.3311 8.62988 43.1936 8.54485 43.0346C8.45983 42.8757 8.41732 42.6923 8.41732 42.4845C8.41732 42.2827 8.46135 42.0917 8.54941 41.9114C8.63747 41.731 8.76348 41.5721 8.92746 41.4345C9.09143 41.297 9.29033 41.1885 9.52414 41.109C9.76099 41.0295 10.0252 40.9898 10.3167 40.9898C10.7297 40.9898 11.0834 41.0601 11.378 41.2007C11.6755 41.3383 11.9033 41.5262 12.0612 41.7646C12.2191 42 12.298 42.2659 12.298 42.5624H11.2003C11.2003 42.431 11.1669 42.3087 11.1001 42.1956C11.0363 42.0795 10.9392 41.9862 10.8086 41.9159C10.678 41.8426 10.5141 41.8059 10.3167 41.8059C10.1284 41.8059 9.97203 41.8365 9.84753 41.8976C9.72607 41.9557 9.63498 42.0321 9.57424 42.1268C9.51655 42.2216 9.4877 42.3255 9.4877 42.4386C9.4877 42.5211 9.50288 42.596 9.53325 42.6633C9.56665 42.7275 9.62131 42.7871 9.69722 42.8421C9.77314 42.894 9.87638 42.9429 10.007 42.9888C10.1406 43.0346 10.3076 43.079 10.508 43.1218C10.8845 43.2012 11.2079 43.3036 11.4782 43.4289C11.7515 43.5512 11.961 43.7101 12.1067 43.9058C12.2525 44.0983 12.3254 44.3428 12.3254 44.6393C12.3254 44.8594 12.2783 45.0611 12.1842 45.2445C12.0931 45.4249 11.9595 45.5823 11.7833 45.7168C11.6072 45.8482 11.3962 45.9506 11.1502 46.0239C10.9073 46.0973 10.634 46.134 10.3303 46.134C9.88397 46.134 9.50592 46.0545 9.19619 45.8956C8.88646 45.7336 8.65113 45.5273 8.4902 45.2766C8.33229 45.0229 8.25334 44.7601 8.25334 44.488H9.31462C9.32676 44.6928 9.38294 44.8563 9.48315 44.9786C9.58639 45.0978 9.71392 45.1849 9.86575 45.2399C10.0206 45.2919 10.18 45.3179 10.344 45.3179C10.5414 45.3179 10.7069 45.2919 10.8405 45.2399C10.9741 45.1849 11.0758 45.1116 11.1457 45.0199C11.2155 44.9251 11.2504 44.8181 11.2504 44.6989Z" fill="black"/>
<path d="M16.0512 44.6989C16.0512 44.5889 16.0239 44.4896 15.9692 44.4009C15.9146 44.3092 15.8098 44.2267 15.6549 44.1533C15.5031 44.08 15.2784 44.0127 14.9808 43.9516C14.7197 43.8935 14.4798 43.8248 14.2612 43.7453C14.0456 43.6628 13.8603 43.5634 13.7055 43.4473C13.5506 43.3311 13.4307 43.1936 13.3456 43.0346C13.2606 42.8757 13.2181 42.6923 13.2181 42.4845C13.2181 42.2827 13.2621 42.0917 13.3502 41.9114C13.4383 41.731 13.5643 41.5721 13.7282 41.4345C13.8922 41.297 14.0911 41.1885 14.3249 41.109C14.5618 41.0295 14.826 40.9898 15.1175 40.9898C15.5304 40.9898 15.8842 41.0601 16.1787 41.2007C16.4763 41.3383 16.7041 41.5262 16.862 41.7646C17.0199 42 17.0988 42.2659 17.0988 42.5624H16.0011C16.0011 42.431 15.9677 42.3087 15.9009 42.1956C15.8371 42.0795 15.74 41.9862 15.6094 41.9159C15.4788 41.8426 15.3148 41.8059 15.1175 41.8059C14.9292 41.8059 14.7728 41.8365 14.6483 41.8976C14.5269 41.9557 14.4358 42.0321 14.375 42.1268C14.3173 42.2216 14.2885 42.3255 14.2885 42.4386C14.2885 42.5211 14.3037 42.596 14.334 42.6633C14.3674 42.7275 14.4221 42.7871 14.498 42.8421C14.5739 42.894 14.6772 42.9429 14.8077 42.9888C14.9413 43.0346 15.1084 43.079 15.3088 43.1218C15.6853 43.2012 16.0087 43.3036 16.2789 43.4289C16.5522 43.5512 16.7618 43.7101 16.9075 43.9058C17.0533 44.0983 17.1261 44.3428 17.1261 44.6393C17.1261 44.8594 17.0791 45.0611 16.9849 45.2445C16.8938 45.4249 16.7602 45.5823 16.5841 45.7168C16.408 45.8482 16.197 45.9506 15.951 46.0239C15.7081 46.0973 15.4348 46.134 15.1311 46.134C14.6848 46.134 14.3067 46.0545 13.997 45.8956C13.6873 45.7336 13.4519 45.5273 13.291 45.2766C13.1331 45.0229 13.0541 44.7601 13.0541 44.488H14.1154C14.1276 44.6928 14.1837 44.8563 14.2839 44.9786C14.3872 45.0978 14.5147 45.1849 14.6665 45.2399C14.8214 45.2919 14.9808 45.3179 15.1448 45.3179C15.3422 45.3179 15.5077 45.2919 15.6413 45.2399C15.7749 45.1849 15.8766 45.1116 15.9464 45.0199C16.0163 44.9251 16.0512 44.8181 16.0512 44.6989Z" fill="black"/>
<path d="M20.8657 45.0474V42.6816C20.8657 42.5043 20.8338 42.3515 20.77 42.2231C20.7062 42.0948 20.6091 41.9954 20.4785 41.9251C20.351 41.8548 20.19 41.8197 19.9957 41.8197C19.8165 41.8197 19.6617 41.8502 19.5311 41.9114C19.4005 41.9725 19.2988 42.055 19.2259 42.1589C19.153 42.2629 19.1166 42.3805 19.1166 42.512H18.0234C18.0234 42.3164 18.0705 42.1268 18.1646 41.9435C18.2588 41.7601 18.3954 41.5965 18.5746 41.4529C18.7537 41.3092 18.9678 41.1961 19.2168 41.1136C19.4658 41.0311 19.7452 40.9898 20.0549 40.9898C20.4254 40.9898 20.7533 41.0525 21.0387 41.1778C21.3272 41.3031 21.5534 41.4926 21.7174 41.7463C21.8844 41.9969 21.9679 42.3118 21.9679 42.6908V44.8961C21.9679 45.1223 21.9831 45.3255 22.0135 45.5059C22.0469 45.6831 22.0939 45.8375 22.1547 45.9689V46.0423H21.0296C20.978 45.9231 20.937 45.7718 20.9067 45.5884C20.8793 45.4019 20.8657 45.2216 20.8657 45.0474ZM21.0251 43.0255L21.0342 43.7086H20.2462C20.0428 43.7086 19.8636 43.7285 19.7087 43.7682C19.5539 43.8049 19.4248 43.8599 19.3216 43.9333C19.2183 44.0066 19.1409 44.0953 19.0893 44.1992C19.0377 44.3031 19.0118 44.4208 19.0118 44.5522C19.0118 44.6836 19.0422 44.8044 19.1029 44.9144C19.1637 45.0214 19.2517 45.1055 19.3671 45.1666C19.4855 45.2277 19.6283 45.2583 19.7953 45.2583C20.02 45.2583 20.2158 45.2124 20.3828 45.1207C20.5529 45.026 20.6865 44.9114 20.7837 44.7769C20.8808 44.6393 20.9325 44.5094 20.9385 44.3872L21.2938 44.8777C21.2574 45.0031 21.1951 45.1375 21.1071 45.2812C21.019 45.4249 20.9036 45.5624 20.7609 45.6938C20.6212 45.8222 20.4527 45.9277 20.2553 46.0102C20.061 46.0927 19.8363 46.134 19.5812 46.134C19.2593 46.134 18.9724 46.0698 18.7203 45.9414C18.4683 45.81 18.2709 45.6342 18.1282 45.4142C17.9855 45.191 17.9141 44.9389 17.9141 44.6577C17.9141 44.3948 17.9627 44.1625 18.0599 43.9608C18.1601 43.756 18.3058 43.5848 18.4971 43.4473C18.6915 43.3097 18.9283 43.2058 19.2077 43.1355C19.4871 43.0621 19.8059 43.0255 20.1642 43.0255H21.0251Z" fill="black"/>
<path d="M24.2043 42.1406V46.0423H23.1066V41.0815H24.1406L24.2043 42.1406ZM24.0085 43.3785L23.6532 43.3739C23.6562 43.0224 23.7048 42.6999 23.799 42.4065C23.8961 42.1131 24.0297 41.8609 24.1998 41.65C24.3729 41.4391 24.5794 41.2771 24.8192 41.164C25.0591 41.0479 25.3263 40.9898 25.6209 40.9898C25.8577 40.9898 26.0718 41.0234 26.2631 41.0907C26.4575 41.1549 26.623 41.2603 26.7596 41.407C26.8993 41.5537 27.0056 41.7448 27.0784 41.9801C27.1513 42.2124 27.1878 42.4982 27.1878 42.8375V46.0423H26.0855V42.8329C26.0855 42.5945 26.0506 42.4065 25.9807 42.269C25.9139 42.1284 25.8152 42.029 25.6847 41.971C25.5571 41.9098 25.3977 41.8793 25.2064 41.8793C25.0181 41.8793 24.8496 41.919 24.7008 41.9985C24.552 42.0779 24.426 42.1864 24.3228 42.324C24.2226 42.4615 24.1451 42.6205 24.0905 42.8008C24.0358 42.9812 24.0085 43.1737 24.0085 43.3785Z" fill="black"/>
<path d="M31.7289 42.0902V46.0423H30.6312V41.0815H31.6652L31.7289 42.0902ZM31.5513 43.3785L31.1778 43.3739C31.1778 43.0316 31.2203 42.7152 31.3053 42.4249C31.3903 42.1345 31.5148 41.8823 31.6788 41.6684C31.8428 41.4513 32.0462 41.2848 32.2892 41.1686C32.5351 41.0494 32.819 40.9898 33.1409 40.9898C33.3656 40.9898 33.5706 41.0234 33.7558 41.0907C33.9441 41.1549 34.1065 41.2573 34.2432 41.3979C34.3829 41.5385 34.4891 41.7188 34.562 41.9389C34.6379 42.1589 34.6759 42.4249 34.6759 42.7366V46.0423H33.5782V42.8329C33.5782 42.5914 33.5417 42.4019 33.4689 42.2644C33.399 42.1268 33.2973 42.029 33.1637 41.971C33.0331 41.9098 32.8767 41.8793 32.6945 41.8793C32.4881 41.8793 32.3119 41.919 32.1662 41.9985C32.0235 42.0779 31.9066 42.1864 31.8155 42.324C31.7244 42.4615 31.6576 42.6205 31.615 42.8008C31.5725 42.9812 31.5513 43.1737 31.5513 43.3785ZM34.6076 43.0851L34.0929 43.1997C34.0929 42.9002 34.1339 42.6174 34.2159 42.3515C34.3009 42.0825 34.4239 41.8472 34.5848 41.6454C34.7488 41.4407 34.9507 41.2802 35.1906 41.164C35.4305 41.0479 35.7053 40.9898 36.015 40.9898C36.267 40.9898 36.4917 41.025 36.6891 41.0953C36.8895 41.1625 37.0596 41.2695 37.1993 41.4162C37.3389 41.5629 37.4452 41.7539 37.5181 41.9893C37.591 42.2216 37.6274 42.5028 37.6274 42.8329V46.0423H36.5251V42.8283C36.5251 42.5777 36.4887 42.3836 36.4158 42.2461C36.346 42.1085 36.2458 42.0138 36.1152 41.9618C35.9846 41.9068 35.8283 41.8793 35.6461 41.8793C35.476 41.8793 35.3257 41.9114 35.1951 41.9755C35.0676 42.0367 34.9598 42.1238 34.8717 42.2369C34.7837 42.3469 34.7169 42.4738 34.6713 42.6174C34.6288 42.7611 34.6076 42.917 34.6076 43.0851Z" fill="black"/>
<path d="M38.5475 43.6169V43.5115C38.5475 43.1538 38.5991 42.8222 38.7024 42.5166C38.8056 42.2078 38.9544 41.9404 39.1487 41.7142C39.3461 41.485 39.586 41.3077 39.8684 41.1824C40.1538 41.054 40.4757 40.9898 40.834 40.9898C41.1954 40.9898 41.5172 41.054 41.7996 41.1824C42.0851 41.3077 42.3265 41.485 42.5239 41.7142C42.7212 41.9404 42.8715 42.2078 42.9748 42.5166C43.078 42.8222 43.1296 43.1538 43.1296 43.5115V43.6169C43.1296 43.9745 43.078 44.3062 42.9748 44.6118C42.8715 44.9175 42.7212 45.1849 42.5239 45.4142C42.3265 45.6403 42.0866 45.8176 41.8042 45.946C41.5218 46.0713 41.2014 46.134 40.8431 46.134C40.4818 46.134 40.1584 46.0713 39.8729 45.946C39.5905 45.8176 39.3507 45.6403 39.1533 45.4142C38.9559 45.1849 38.8056 44.9175 38.7024 44.6118C38.5991 44.3062 38.5475 43.9745 38.5475 43.6169ZM39.6452 43.5115V43.6169C39.6452 43.84 39.668 44.0509 39.7135 44.2496C39.7591 44.4483 39.8304 44.6225 39.9276 44.7723C40.0248 44.9221 40.1493 45.0397 40.3011 45.1253C40.4529 45.2109 40.6336 45.2537 40.8431 45.2537C41.0466 45.2537 41.2227 45.2109 41.3715 45.1253C41.5233 45.0397 41.6478 44.9221 41.745 44.7723C41.8421 44.6225 41.9135 44.4483 41.9591 44.2496C42.0076 44.0509 42.0319 43.84 42.0319 43.6169V43.5115C42.0319 43.2914 42.0076 43.0835 41.9591 42.8879C41.9135 42.6893 41.8406 42.5135 41.7404 42.3607C41.6433 42.2078 41.5188 42.0886 41.3669 42.0031C41.2181 41.9144 41.0405 41.8701 40.834 41.8701C40.6275 41.8701 40.4484 41.9144 40.2965 42.0031C40.1478 42.0886 40.0248 42.2078 39.9276 42.3607C39.8304 42.5135 39.7591 42.6893 39.7135 42.8879C39.668 43.0835 39.6452 43.2914 39.6452 43.5115Z" fill="black"/>
<path d="M46.3089 41.0815V41.8884H43.5305V41.0815H46.3089ZM44.3321 39.8665H45.4298V44.6714C45.4298 44.8242 45.4511 44.9419 45.4936 45.0245C45.5391 45.1039 45.6014 45.1574 45.6803 45.1849C45.7593 45.2124 45.8519 45.2262 45.9582 45.2262C46.0341 45.2262 46.107 45.2216 46.1768 45.2124C46.2467 45.2033 46.3028 45.1941 46.3454 45.1849L46.3499 46.0285C46.2588 46.056 46.1525 46.0805 46.0311 46.1019C45.9126 46.1233 45.776 46.134 45.6211 46.134C45.3691 46.134 45.1459 46.0897 44.9516 46.001C44.7572 45.9093 44.6054 45.7611 44.4961 45.5563C44.3868 45.3515 44.3321 45.0795 44.3321 44.7402V39.8665Z" fill="black"/>
<path d="M46.8373 43.6169V43.5115C46.8373 43.1538 46.8889 42.8222 46.9921 42.5166C47.0954 42.2078 47.2442 41.9404 47.4385 41.7142C47.6359 41.485 47.8758 41.3077 48.1582 41.1824C48.4436 41.054 48.7655 40.9898 49.1238 40.9898C49.4851 40.9898 49.807 41.054 50.0894 41.1824C50.3749 41.3077 50.6163 41.485 50.8136 41.7142C51.011 41.9404 51.1613 42.2078 51.2646 42.5166C51.3678 42.8222 51.4194 43.1538 51.4194 43.5115V43.6169C51.4194 43.9745 51.3678 44.3062 51.2646 44.6118C51.1613 44.9175 51.011 45.1849 50.8136 45.4142C50.6163 45.6403 50.3764 45.8176 50.094 45.946C49.8116 46.0713 49.4912 46.134 49.1329 46.134C48.7716 46.134 48.4482 46.0713 48.1627 45.946C47.8803 45.8176 47.6404 45.6403 47.4431 45.4142C47.2457 45.1849 47.0954 44.9175 46.9921 44.6118C46.8889 44.3062 46.8373 43.9745 46.8373 43.6169ZM47.935 43.5115V43.6169C47.935 43.84 47.9578 44.0509 48.0033 44.2496C48.0489 44.4483 48.1202 44.6225 48.2174 44.7723C48.3146 44.9221 48.4391 45.0397 48.5909 45.1253C48.7427 45.2109 48.9234 45.2537 49.1329 45.2537C49.3364 45.2537 49.5125 45.2109 49.6613 45.1253C49.8131 45.0397 49.9376 44.9221 50.0348 44.7723C50.1319 44.6225 50.2033 44.4483 50.2488 44.2496C50.2974 44.0509 50.3217 43.84 50.3217 43.6169V43.5115C50.3217 43.2914 50.2974 43.0835 50.2488 42.8879C50.2033 42.6893 50.1304 42.5135 50.0302 42.3607C49.933 42.2078 49.8085 42.0886 49.6567 42.0031C49.5079 41.9144 49.3303 41.8701 49.1238 41.8701C48.9173 41.8701 48.7382 41.9144 48.5863 42.0031C48.4375 42.0886 48.3146 42.2078 48.2174 42.3607C48.1202 42.5135 48.0489 42.6893 48.0033 42.8879C47.9578 43.0835 47.935 43.2914 47.935 43.5115Z" fill="black"/>
<path d="M56.6757 45.2537C56.8549 45.2537 57.0158 45.2185 57.1585 45.1482C57.3043 45.0749 57.4212 44.974 57.5092 44.8456C57.6003 44.7173 57.6504 44.569 57.6595 44.4009H58.6935C58.6874 44.7219 58.5933 45.0138 58.4111 45.2766C58.2289 45.5395 57.9875 45.7489 57.6869 45.9047C57.3862 46.0576 57.0537 46.134 56.6894 46.134C56.3128 46.134 55.9849 46.0698 55.7055 45.9414C55.4262 45.81 55.1939 45.6296 55.0086 45.4004C54.8234 45.1712 54.6837 44.9068 54.5896 44.6072C54.4985 44.3077 54.4529 43.9868 54.4529 43.6444V43.484C54.4529 43.1416 54.4985 42.8207 54.5896 42.5211C54.6837 42.2185 54.8234 41.9526 55.0086 41.7234C55.1939 41.4941 55.4262 41.3153 55.7055 41.187C55.9849 41.0555 56.3113 40.9898 56.6848 40.9898C57.0796 40.9898 57.4257 41.0693 57.7233 41.2282C58.0209 41.3841 58.2547 41.6026 58.4247 41.8839C58.5978 42.162 58.6874 42.486 58.6935 42.8558H57.6595C57.6504 42.6724 57.6049 42.5074 57.5229 42.3607C57.4439 42.2109 57.3316 42.0917 57.1858 42.0031C57.0431 41.9144 56.8716 41.8701 56.6711 41.8701C56.4495 41.8701 56.2658 41.9159 56.12 42.0076C55.9743 42.0963 55.8604 42.2185 55.7784 42.3744C55.6964 42.5273 55.6372 42.6999 55.6008 42.8925C55.5674 43.082 55.5507 43.2792 55.5507 43.484V43.6444C55.5507 43.8492 55.5674 44.0479 55.6008 44.2404C55.6342 44.433 55.6919 44.6057 55.7738 44.7585C55.8589 44.9083 55.9743 45.029 56.12 45.1207C56.2658 45.2094 56.451 45.2537 56.6757 45.2537Z" fill="black"/>
<path d="M62.3146 45.0474V42.6816C62.3146 42.5043 62.2827 42.3515 62.2189 42.2231C62.1552 42.0948 62.058 41.9954 61.9274 41.9251C61.7999 41.8548 61.6389 41.8197 61.4446 41.8197C61.2654 41.8197 61.1106 41.8502 60.98 41.9114C60.8494 41.9725 60.7477 42.055 60.6748 42.1589C60.602 42.2629 60.5655 42.3805 60.5655 42.512H59.4724C59.4724 42.3164 59.5194 42.1268 59.6136 41.9435C59.7077 41.7601 59.8443 41.5965 60.0235 41.4529C60.2026 41.3092 60.4167 41.1961 60.6657 41.1136C60.9147 41.0311 61.1941 40.9898 61.5038 40.9898C61.8743 40.9898 62.2022 41.0525 62.4877 41.1778C62.7761 41.3031 63.0023 41.4926 63.1663 41.7463C63.3333 41.9969 63.4168 42.3118 63.4168 42.6908V44.8961C63.4168 45.1223 63.432 45.3255 63.4624 45.5059C63.4958 45.6831 63.5429 45.8375 63.6036 45.9689V46.0423H62.4785C62.4269 45.9231 62.3859 45.7718 62.3556 45.5884C62.3282 45.4019 62.3146 45.2216 62.3146 45.0474ZM62.474 43.0255L62.4831 43.7086H61.6951C61.4917 43.7086 61.3125 43.7285 61.1576 43.7682C61.0028 43.8049 60.8737 43.8599 60.7705 43.9333C60.6672 44.0066 60.5898 44.0953 60.5382 44.1992C60.4866 44.3031 60.4608 44.4208 60.4608 44.5522C60.4608 44.6836 60.4911 44.8044 60.5518 44.9144C60.6126 45.0214 60.7006 45.1055 60.816 45.1666C60.9345 45.2277 61.0772 45.2583 61.2442 45.2583C61.4689 45.2583 61.6647 45.2124 61.8318 45.1207C62.0018 45.026 62.1354 44.9114 62.2326 44.7769C62.3298 44.6393 62.3814 44.5094 62.3874 44.3872L62.7427 44.8777C62.7063 45.0031 62.644 45.1375 62.556 45.2812C62.4679 45.4249 62.3525 45.5624 62.2098 45.6938C62.0701 45.8222 61.9016 45.9277 61.7042 46.0102C61.5099 46.0927 61.2852 46.134 61.0301 46.134C60.7082 46.134 60.4213 46.0698 60.1692 45.9414C59.9172 45.81 59.7198 45.6342 59.5771 45.4142C59.4344 45.191 59.363 44.9389 59.363 44.6577C59.363 44.3948 59.4116 44.1625 59.5088 43.9608C59.609 43.756 59.7548 43.5848 59.9461 43.4473C60.1404 43.3097 60.3773 43.2058 60.6566 43.1355C60.936 43.0621 61.2548 43.0255 61.6131 43.0255H62.474Z" fill="black"/>
<path d="M66.8238 41.0815V41.8884H64.0454V41.0815H66.8238ZM64.847 39.8665H65.9448V44.6714C65.9448 44.8242 65.966 44.9419 66.0085 45.0245C66.0541 45.1039 66.1163 45.1574 66.1953 45.1849C66.2742 45.2124 66.3668 45.2262 66.4731 45.2262C66.549 45.2262 66.6219 45.2216 66.6918 45.2124C66.7616 45.2033 66.8178 45.1941 66.8603 45.1849L66.8648 46.0285C66.7737 46.056 66.6675 46.0805 66.546 46.1019C66.4276 46.1233 66.2909 46.134 66.1361 46.134C65.884 46.134 65.6608 46.0897 65.4665 46.001C65.2722 45.9093 65.1203 45.7611 65.011 45.5563C64.9017 45.3515 64.847 45.0795 64.847 44.7402V39.8665Z" fill="black"/>
<path d="M70.4495 45.0474V42.6816C70.4495 42.5043 70.4176 42.3515 70.3538 42.2231C70.2901 42.0948 70.1929 41.9954 70.0623 41.9251C69.9348 41.8548 69.7739 41.8197 69.5795 41.8197C69.4004 41.8197 69.2455 41.8502 69.1149 41.9114C68.9844 41.9725 68.8826 42.055 68.8098 42.1589C68.7369 42.2629 68.7004 42.3805 68.7004 42.512H67.6073C67.6073 42.3164 67.6543 42.1268 67.7485 41.9435C67.8426 41.7601 67.9793 41.5965 68.1584 41.4529C68.3376 41.3092 68.5516 41.1961 68.8006 41.1136C69.0496 41.0311 69.329 40.9898 69.6387 40.9898C70.0092 40.9898 70.3371 41.0525 70.6226 41.1778C70.911 41.3031 71.1373 41.4926 71.3012 41.7463C71.4682 41.9969 71.5518 42.3118 71.5518 42.6908V44.8961C71.5518 45.1223 71.5669 45.3255 71.5973 45.5059C71.6307 45.6831 71.6778 45.8375 71.7385 45.9689V46.0423H70.6135C70.5618 45.9231 70.5208 45.7718 70.4905 45.5884C70.4632 45.4019 70.4495 45.2216 70.4495 45.0474ZM70.6089 43.0255L70.618 43.7086H69.83C69.6266 43.7086 69.4474 43.7285 69.2926 43.7682C69.1377 43.8049 69.0086 43.8599 68.9054 43.9333C68.8022 44.0066 68.7247 44.0953 68.6731 44.1992C68.6215 44.3031 68.5957 44.4208 68.5957 44.5522C68.5957 44.6836 68.626 44.8044 68.6868 44.9144C68.7475 45.0214 68.8356 45.1055 68.951 45.1666C69.0694 45.2277 69.2121 45.2583 69.3791 45.2583C69.6038 45.2583 69.7997 45.2124 69.9667 45.1207C70.1367 45.026 70.2703 44.9114 70.3675 44.7769C70.4647 44.6393 70.5163 44.5094 70.5224 44.3872L70.8776 44.8777C70.8412 45.0031 70.779 45.1375 70.6909 45.2812C70.6028 45.4249 70.4874 45.5624 70.3447 45.6938C70.205 45.8222 70.0365 45.9277 69.8391 46.0102C69.6448 46.0927 69.4201 46.134 69.165 46.134C68.8432 46.134 68.5562 46.0698 68.3042 45.9414C68.0521 45.81 67.8548 45.6342 67.712 45.4142C67.5693 45.191 67.498 44.9389 67.498 44.6577C67.498 44.3948 67.5465 44.1625 67.6437 43.9608C67.7439 43.756 67.8897 43.5848 68.081 43.4473C68.2753 43.3097 68.5122 43.2058 68.7915 43.1355C69.0709 43.0621 69.3897 43.0255 69.748 43.0255H70.6089Z" fill="black"/>
<path d="M73.8747 39V46.0423H72.7724V39H73.8747Z" fill="black"/>
<path d="M74.8677 43.6169V43.5115C74.8677 43.1538 74.9193 42.8222 75.0225 42.5166C75.1258 42.2078 75.2746 41.9404 75.4689 41.7142C75.6663 41.485 75.9062 41.3077 76.1886 41.1824C76.474 41.054 76.7959 40.9898 77.1542 40.9898C77.5155 40.9898 77.8374 41.054 78.1198 41.1824C78.4053 41.3077 78.6467 41.485 78.844 41.7142C79.0414 41.9404 79.1917 42.2078 79.295 42.5166C79.3982 42.8222 79.4498 43.1538 79.4498 43.5115V43.6169C79.4498 43.9745 79.3982 44.3062 79.295 44.6118C79.1917 44.9175 79.0414 45.1849 78.844 45.4142C78.6467 45.6403 78.4068 45.8176 78.1244 45.946C77.842 46.0713 77.5216 46.134 77.1633 46.134C76.802 46.134 76.4786 46.0713 76.1931 45.946C75.9107 45.8176 75.6708 45.6403 75.4735 45.4142C75.2761 45.1849 75.1258 44.9175 75.0225 44.6118C74.9193 44.3062 74.8677 43.9745 74.8677 43.6169ZM75.9654 43.5115V43.6169C75.9654 43.84 75.9882 44.0509 76.0337 44.2496C76.0793 44.4483 76.1506 44.6225 76.2478 44.7723C76.345 44.9221 76.4695 45.0397 76.6213 45.1253C76.7731 45.2109 76.9538 45.2537 77.1633 45.2537C77.3668 45.2537 77.5429 45.2109 77.6917 45.1253C77.8435 45.0397 77.968 44.9221 78.0652 44.7723C78.1623 44.6225 78.2337 44.4483 78.2792 44.2496C78.3278 44.0509 78.3521 43.84 78.3521 43.6169V43.5115C78.3521 43.2914 78.3278 43.0835 78.2792 42.8879C78.2337 42.6893 78.1608 42.5135 78.0606 42.3607C77.9634 42.2078 77.8389 42.0886 77.6871 42.0031C77.5383 41.9144 77.3607 41.8701 77.1542 41.8701C76.9477 41.8701 76.7686 41.9144 76.6167 42.0031C76.4679 42.0886 76.345 42.2078 76.2478 42.3607C76.1506 42.5135 76.0793 42.6893 76.0337 42.8879C75.9882 43.0835 75.9654 43.2914 75.9654 43.5115Z" fill="black"/>
<path d="M83.5264 41.0815H84.5239V45.9047C84.5239 46.351 84.4298 46.73 84.2415 47.0418C84.0532 47.3535 83.7906 47.5904 83.4535 47.7524C83.1165 47.9175 82.7263 48 82.2829 48C82.0947 48 81.8851 47.9725 81.6544 47.9175C81.4266 47.8625 81.205 47.7738 80.9894 47.6516C80.7768 47.5323 80.5992 47.3749 80.4564 47.1793L80.9711 46.5283C81.1473 46.7392 81.3416 46.8935 81.5542 46.9913C81.7667 47.0891 81.9899 47.1381 82.2237 47.1381C82.4757 47.1381 82.6898 47.0907 82.8659 46.9959C83.0451 46.9042 83.1833 46.7682 83.2804 46.5879C83.3776 46.4075 83.4262 46.1875 83.4262 45.9277V42.2048L83.5264 41.0815ZM80.1786 43.6169V43.5206C80.1786 43.1447 80.2241 42.8023 80.3152 42.4936C80.4063 42.1819 80.5369 41.9144 80.707 41.6913C80.877 41.4651 81.0835 41.2924 81.3264 41.1732C81.5693 41.0509 81.8441 40.9898 82.1508 40.9898C82.4697 40.9898 82.7414 41.0479 82.9662 41.164C83.1939 41.2802 83.3837 41.4468 83.5355 41.6638C83.6873 41.8777 83.8058 42.1345 83.8908 42.434C83.9788 42.7305 84.0441 43.0606 84.0866 43.4244V43.7315C84.0472 44.0861 83.9804 44.4101 83.8862 44.7035C83.7921 44.9969 83.6676 45.2506 83.5127 45.4646C83.3579 45.6786 83.1666 45.8436 82.9388 45.9598C82.7141 46.0759 82.4484 46.134 82.1417 46.134C81.8411 46.134 81.5693 46.0713 81.3264 45.946C81.0865 45.8207 80.88 45.6449 80.707 45.4187C80.5369 45.1926 80.4063 44.9266 80.3152 44.621C80.2241 44.3123 80.1786 43.9776 80.1786 43.6169ZM81.2763 43.5206V43.6169C81.2763 43.8431 81.2976 44.054 81.3401 44.2496C81.3856 44.4452 81.4539 44.6179 81.545 44.7677C81.6392 44.9144 81.7576 45.0306 81.9003 45.1161C82.0461 45.1987 82.2176 45.2399 82.415 45.2399C82.6731 45.2399 82.8842 45.1849 83.0481 45.0749C83.2151 44.9648 83.3427 44.8166 83.4307 44.6302C83.5218 44.4407 83.5856 44.2298 83.622 43.9975V43.1676C83.6038 42.9873 83.5659 42.8192 83.5082 42.6633C83.4535 42.5074 83.3791 42.3714 83.285 42.2552C83.1909 42.136 83.0724 42.0443 82.9297 41.9801C82.787 41.9129 82.6185 41.8793 82.4241 41.8793C82.2268 41.8793 82.0552 41.9221 81.9094 42.0076C81.7637 42.0932 81.6437 42.2109 81.5496 42.3607C81.4585 42.5104 81.3902 42.6847 81.3446 42.8833C81.2991 43.082 81.2763 43.2944 81.2763 43.5206Z" fill="black"/>
<path d="M88.6278 44.8732V41.0815H89.7301V46.0423H88.6916L88.6278 44.8732ZM88.7827 43.8416L89.1516 43.8324C89.1516 44.1656 89.1152 44.4727 89.0423 44.7539C88.9694 45.0321 88.8571 45.2751 88.7052 45.4829C88.5534 45.6877 88.3591 45.8482 88.1222 45.9643C87.8854 46.0774 87.6014 46.134 87.2705 46.134C87.0306 46.134 86.8104 46.0988 86.61 46.0285C86.4096 45.9582 86.2365 45.8497 86.0908 45.703C85.948 45.5563 85.8372 45.3653 85.7583 45.1299C85.6793 44.8945 85.6398 44.6133 85.6398 44.2863V41.0815H86.7375V44.2955C86.7375 44.4758 86.7588 44.6271 86.8013 44.7494C86.8438 44.8686 86.9015 44.9648 86.9744 45.0382C87.0473 45.1116 87.1323 45.1635 87.2295 45.1941C87.3266 45.2247 87.4299 45.2399 87.5392 45.2399C87.852 45.2399 88.0979 45.1788 88.2771 45.0565C88.4593 44.9312 88.5883 44.7631 88.6642 44.5522C88.7432 44.3413 88.7827 44.1044 88.7827 43.8416Z" fill="black"/>
<path d="M93.0278 46.134C92.6634 46.134 92.3339 46.0744 92.0394 45.9552C91.7479 45.8329 91.4989 45.6633 91.2924 45.4463C91.0889 45.2292 90.9325 44.974 90.8232 44.6806C90.7139 44.3872 90.6592 44.0708 90.6592 43.7315V43.5481C90.6592 43.16 90.7154 42.8085 90.8278 42.4936C90.9401 42.1788 91.0965 41.9098 91.2969 41.6867C91.4973 41.4605 91.7342 41.2878 92.0075 41.1686C92.2808 41.0494 92.5768 40.9898 92.8957 40.9898C93.2479 40.9898 93.5561 41.0494 93.8203 41.1686C94.0845 41.2878 94.3031 41.4559 94.4762 41.6729C94.6523 41.8869 94.7829 42.1421 94.8679 42.4386C94.956 42.7351 95 43.0621 95 43.4198V43.892H91.1922V43.0988H93.9159V43.0117C93.9099 42.813 93.8704 42.6266 93.7975 42.4524C93.7277 42.2781 93.6199 42.1375 93.4741 42.0306C93.3284 41.9236 93.134 41.8701 92.8911 41.8701C92.7089 41.8701 92.5465 41.9098 92.4038 41.9893C92.2641 42.0657 92.1472 42.1773 92.053 42.324C91.9589 42.4707 91.886 42.648 91.8344 42.8558C91.7858 43.0606 91.7615 43.2914 91.7615 43.5481V43.7315C91.7615 43.9485 91.7904 44.1503 91.8481 44.3367C91.9088 44.5201 91.9969 44.6806 92.1122 44.8181C92.2276 44.9557 92.3673 45.0642 92.5313 45.1437C92.6953 45.2201 92.882 45.2583 93.0915 45.2583C93.3557 45.2583 93.591 45.2048 93.7975 45.0978C94.004 44.9908 94.1832 44.8395 94.335 44.6439L94.9135 45.2078C94.8072 45.3637 94.669 45.5135 94.499 45.6572C94.3289 45.7978 94.1209 45.9124 93.875 46.001C93.632 46.0897 93.3496 46.134 93.0278 46.134Z" fill="black"/>
</svg>
